<svg width="132" height="133" viewBox="0 0 132 133" fill="none" xmlns="http://www.w3.org/2000/svg">
<path d="M103.919 119.321C100.359 121.252 96.9337 123.37 93.2982 125.039C54.5518 142.816 9.36138 119.879 1.21363 78.3524C-5.65814 43.3375 17.3452 9.27901 52.6628 2.17084C87.5705 -4.85614 122.115 17.2801 129.874 51.6209C130.159 52.8774 129.828 53.4632 128.637 54.0244C114.587 60.6596 97.3222 58.1573 85.849 47.6186C81.8143 43.9092 77.4161 41.0081 72.0092 39.6952C56.4943 35.9223 40.6016 46.6868 38.6626 62.322C36.8092 77.2583 46.6286 90.444 61.5911 92.7169C69.9527 93.9875 77.5551 91.8205 83.8317 86.1064C88.7111 81.6665 93.979 77.9818 100.373 76.0936C106.308 74.3395 112.37 73.4571 118.419 75.2677C123.637 76.8312 127.821 79.803 129.354 85.3723C129.706 86.6605 129.867 88.037 129.87 89.3746C129.913 98.7875 129.917 108.2 129.885 117.613C129.86 124.245 126.06 129.186 119.901 130.728C112.948 132.468 105.659 127.894 104.279 120.924C104.169 120.352 104.026 119.787 103.919 119.321Z" fill="white"/>
</svg>
