<svg width="32" height="33" viewBox="0 0 32 33" fill="none" xmlns="http://www.w3.org/2000/svg">
<g clip-path="url(#clip0_251_2407)">
<path d="M7.99984 11.0944L8.00117 23.6864C8.00117 24.8344 8.92917 25.7611 10.0772 25.7611H10.6665V30.4837C10.6665 31.5557 11.6092 32.4277 12.6798 32.4277C13.7545 32.4277 14.6665 31.5557 14.6665 30.4824V25.7611H17.3332V30.4837C17.3332 31.5557 18.2758 32.4277 19.3478 32.4277C20.4225 32.4277 21.3332 31.5557 21.3332 30.4824V25.7611L21.9252 25.7597C23.0692 25.7597 23.9998 24.8317 23.9998 23.6837V11.0944H7.99984ZM29.3332 13.0557C29.3332 11.9824 28.4065 11.0944 27.3332 11.0944C26.2598 11.0931 25.3332 11.9837 25.3332 13.0571V21.1984C25.3332 22.2731 26.2585 23.0944 27.3332 23.0944C28.4065 23.0944 29.3332 22.2744 29.3332 21.1984V13.0557ZM6.6665 13.0557C6.6665 11.9824 5.73984 11.0944 4.6665 11.0944C3.59317 11.0931 2.6665 11.9837 2.6665 13.0571V21.1984C2.6665 22.2731 3.59184 23.0944 4.6665 23.0944C5.73984 23.0944 6.6665 22.2744 6.6665 21.1984V13.0557ZM19.9345 3.3064L21.1878 0.827734C21.2785 0.651734 21.1625 0.427734 20.9705 0.427734C20.8825 0.427734 20.7972 0.478401 20.7518 0.567734L19.4865 3.07173C17.4452 2.08907 14.7612 1.98907 12.5145 3.07173L11.2478 0.567734C11.2038 0.478401 11.1185 0.427734 11.0292 0.427734C10.8372 0.427734 10.7212 0.651734 10.8118 0.827734L12.0652 3.3064C9.60517 4.68507 7.99984 6.75173 7.99984 9.75974H23.9998C23.9998 6.75173 22.3945 4.68507 19.9345 3.3064ZM12.6678 7.0944C12.2998 7.0944 11.9998 6.79573 11.9998 6.42773C11.9998 6.0624 12.2998 5.76107 12.6678 5.76107C13.0358 5.76107 13.3332 6.0624 13.3332 6.42773C13.3332 6.79573 13.0358 7.0944 12.6678 7.0944ZM19.3318 7.0944C18.9638 7.0944 18.6665 6.79573 18.6665 6.42773C18.6665 6.0624 18.9638 5.76107 19.3318 5.76107C19.6998 5.76107 19.9998 6.0624 19.9998 6.42773C19.9998 6.79573 19.6998 7.0944 19.3318 7.0944Z" fill="white"/>
</g>
<defs>
<clipPath id="clip0_251_2407">
<rect width="32" height="32" fill="white" transform="translate(0 0.427734)"/>
</clipPath>
</defs>
</svg>
