<svg width="32" height="33" viewBox="0 0 32 33" fill="none" xmlns="http://www.w3.org/2000/svg">
<g clip-path="url(#clip0_251_2405)">
<path d="M29.3332 23.9037C28.2852 26.9437 25.1478 32.3264 21.9158 32.3851C19.7718 32.4264 19.0825 31.1144 16.6318 31.1144C14.1825 31.1144 13.4158 32.3451 11.3892 32.4251C7.95984 32.5571 2.6665 24.6557 2.6665 17.7651C2.6665 11.4357 7.07717 8.2984 10.9305 8.24107C12.9972 8.20374 14.9492 9.6344 16.2092 9.6344C17.4745 9.6344 19.8452 7.9144 22.3372 8.1664C23.3798 8.2104 26.3092 8.5864 28.1892 11.3357C23.2012 14.5917 23.9785 21.4011 29.3332 23.9037ZM22.3705 0.427734C18.6025 0.579734 15.5278 4.53307 15.9572 7.8024C19.4398 8.07307 22.7812 4.16907 22.3705 0.427734Z" fill="white"/>
</g>
<defs>
<clipPath id="clip0_251_2405">
<rect width="32" height="32" fill="white" transform="translate(0 0.427734)"/>
</clipPath>
</defs>
</svg>
