<svg width="144" height="20" viewBox="0 0 144 20" fill="none" xmlns="http://www.w3.org/2000/svg">
<path d="M0 7.05882C0 3.16034 3.14892 0 7.0333 0H38.2143C38.2143 3.89848 35.0654 7.05882 31.181 7.05882H0Z" fill="#CFCFCF"/>
<path d="M0 20C0 16.1015 3.14892 12.9412 7.0333 12.9412H38.2143C38.2143 16.8397 35.0654 20 31.181 20H0Z" fill="#CFCFCF"/>
<path d="M50.0223 9.04244C50.4379 10.5448 51.5647 11.296 53.4027 11.296C54.5855 11.296 55.4805 10.8965 56.0879 10.0973L58.5812 11.5358C57.3985 13.246 55.6563 14.1011 53.3548 14.1011C51.3729 14.1011 49.7826 13.5017 48.5839 12.303C47.3851 11.1042 46.7858 9.59385 46.7858 7.77179C46.7858 5.96571 47.3771 4.46331 48.5599 3.26458C49.7426 2.04987 51.261 1.44252 53.115 1.44252C54.8732 1.44252 56.3196 2.04987 57.4544 3.26458C58.6052 4.47929 59.1806 5.98169 59.1806 7.77179C59.1806 8.17137 59.1406 8.59491 59.0607 9.04244H50.0223ZM49.9744 6.64499H56.0879C55.9121 5.82985 55.5445 5.2225 54.985 4.82293C54.4416 4.42335 53.8183 4.22356 53.115 4.22356C52.2839 4.22356 51.5967 4.43933 51.0532 4.87087C50.5098 5.28643 50.1502 5.8778 49.9744 6.64499Z" fill="#CFCFCF"/>
<path d="M63.7243 5.18254C63.7243 5.5022 63.9321 5.76592 64.3477 5.9737C64.7792 6.1655 65.2986 6.34131 65.906 6.50114C66.5134 6.64499 67.1207 6.83678 67.7281 7.07653C68.3354 7.30029 68.8469 7.68388 69.2624 8.22731C69.694 8.77073 69.9097 9.45001 69.9097 10.2651C69.9097 11.4958 69.4462 12.4468 68.5192 13.1181C67.6082 13.7734 66.4654 14.1011 65.0909 14.1011C62.6295 14.1011 60.9513 13.1501 60.0562 11.2481L62.7414 9.7377C63.093 10.7766 63.8762 11.296 65.0909 11.296C66.1937 11.296 66.7451 10.9524 66.7451 10.2651C66.7451 9.94548 66.5293 9.68975 66.0978 9.49796C65.6822 9.29018 65.1708 9.10637 64.5634 8.94654C63.9561 8.78671 63.3487 8.58692 62.7414 8.34718C62.134 8.10743 61.6146 7.73183 61.183 7.22038C60.7675 6.69294 60.5597 6.03763 60.5597 5.25447C60.5597 4.07172 60.9912 3.14471 61.8543 2.47342C62.7334 1.78616 63.8202 1.44252 65.1148 1.44252C66.0898 1.44252 66.9769 1.66628 67.776 2.11381C68.5752 2.54535 69.2065 3.16868 69.67 3.98382L67.0328 5.42229C66.6492 4.60715 66.0099 4.19959 65.1148 4.19959C64.7153 4.19959 64.3796 4.28749 64.1079 4.46331C63.8522 4.63912 63.7243 4.87887 63.7243 5.18254Z" fill="#CFCFCF"/>
<path d="M74.348 9.04244C74.7636 10.5448 75.8904 11.296 77.7284 11.296C78.9112 11.296 79.8062 10.8965 80.4136 10.0973L82.9069 11.5358C81.7242 13.246 79.982 14.1011 77.6805 14.1011C75.6986 14.1011 74.1083 13.5017 72.9095 12.303C71.7108 11.1042 71.1115 9.59385 71.1115 7.77179C71.1115 5.96571 71.7028 4.46331 72.8856 3.26458C74.0683 2.04987 75.5867 1.44252 77.4407 1.44252C79.1989 1.44252 80.6453 2.04987 81.7801 3.26458C82.9309 4.47929 83.5063 5.98169 83.5063 7.77179C83.5063 8.17137 83.4663 8.59491 83.3864 9.04244H74.348ZM74.3001 6.64499H80.4136C80.2378 5.82985 79.8701 5.2225 79.3107 4.82293C78.7673 4.42335 78.144 4.22356 77.4407 4.22356C76.6096 4.22356 75.9223 4.43933 75.3789 4.87087C74.8355 5.28643 74.4759 5.8778 74.3001 6.64499Z" fill="#CFCFCF"/>
<path d="M92.3302 1.44252C93.6408 1.44252 94.7197 1.88205 95.5668 2.76112C96.4298 3.64018 96.8614 4.85489 96.8614 6.40524V13.7654H93.7687V6.78884C93.7687 5.98969 93.5529 5.38233 93.1214 4.96677C92.6898 4.53523 92.1144 4.31946 91.3952 4.31946C90.5961 4.31946 89.9567 4.5672 89.4772 5.06267C88.9978 5.55814 88.758 6.30135 88.758 7.2923V13.7654H85.6653V1.77816H88.758V3.12074C89.5092 2.00193 90.6999 1.44252 92.3302 1.44252Z" fill="#CFCFCF"/>
<path d="M112.789 1.77816H116.074L112.262 13.7654H109.313L107.107 6.50114L104.901 13.7654H101.953L98.1407 1.77816H101.425L103.463 9.13834L105.645 1.77816H108.57L110.751 9.16231L112.789 1.77816Z" fill="#CFCFCF"/>
<path d="M139.963 1.77816H143.271L138.908 13.7654C138.284 15.4916 137.453 16.7383 136.414 17.5054C135.392 18.2886 134.113 18.6402 132.579 18.5603V15.6834C133.41 15.6994 134.065 15.5235 134.544 15.1559C135.04 14.7883 135.432 14.197 135.719 13.3818L130.804 1.77816H134.185L137.302 9.8336L139.963 1.77816Z" fill="#CFCFCF"/>
<path d="M129.303 12.7731C129.307 11.8584 129.282 10.8052 129.278 9.89047C129.132 10.0307 126.829 13.0393 126.84 13.0948C126.972 13.7722 127.674 14.2167 128.343 14.0476C128.935 13.8977 129.301 13.4176 129.303 12.7731Z" fill="#CFCFCF"/>
<path d="M129.303 12.8634C129.307 11.9487 127.412 11.3337 127.408 10.419C127.262 10.5592 126.597 11.947 126.84 13.1851C126.972 13.8625 127.674 14.307 128.343 14.1379C128.935 13.988 129.301 13.5078 129.303 12.8634Z" fill="#CFCFCF"/>
<path d="M123.057 1.42856C122.64 1.42856 122.218 1.4691 121.795 1.55416C118.366 2.24209 116.12 5.55747 116.787 8.94556C117.165 10.8683 118.394 12.4817 120.157 13.3711C121.916 14.2586 123.955 14.2965 125.75 13.4755C125.992 13.3653 126.224 13.234 126.47 13.0956C126.584 13.0313 126.702 12.9647 126.821 12.9004L127.236 12.6761L127.349 13.1688C127.36 13.212 127.371 13.2596 127.38 13.3076C127.429 13.5518 127.585 13.773 127.809 13.9127C128.032 14.0524 128.161 13.9765 128.407 13.9153C128.886 13.7959 128.654 13.1939 128.657 12.6761C128.66 11.7065 129.307 11.0913 129.303 10.1434C129.303 10.0301 129.288 9.91995 129.262 9.82388C129.154 9.43254 128.874 9.18134 128.379 9.03415C127.912 8.89488 127.403 8.92089 126.73 9.1192C126.202 9.27477 125.721 9.56695 125.17 10.0667C124.455 10.7154 123.562 10.9803 122.588 10.8326C121.752 10.7062 121.021 10.2769 120.529 9.62424C120.039 8.97509 119.827 8.15936 119.93 7.32732C120.038 6.46795 120.523 5.68571 121.265 5.18111C122.012 4.67255 122.935 4.50111 123.798 4.71C124.357 4.8453 124.859 5.12999 125.378 5.6055C126.423 6.56226 127.981 6.81302 129.286 6.24408C128.586 3.39143 125.949 1.42856 123.057 1.42856Z" fill="#CFCFCF"/>
<path d="M129.303 12.7731C129.307 11.8584 129.282 10.8052 129.278 9.89047C129.132 10.0307 126.829 13.0393 126.84 13.0948C126.972 13.7722 127.674 14.2167 128.343 14.0476C128.935 13.8977 129.301 13.4176 129.303 12.7731Z" fill="#CFCFCF"/>
<path d="M129.303 12.8634C129.307 11.9487 129.306 11.034 129.302 10.1193C129.156 10.2595 126.597 11.947 126.84 13.1851C126.972 13.8625 127.674 14.307 128.343 14.1379C128.935 13.988 129.301 13.5078 129.303 12.8634Z" fill="#CFCFCF"/>
</svg>
