<svg width="400" height="57" viewBox="0 0 400 57" fill="none" xmlns="http://www.w3.org/2000/svg">
<path d="M0 19.981C0 9.09683 8.79149 0.273438 19.6363 0.273438H106.691C106.691 11.1576 97.8993 19.981 87.0545 19.981H0Z" fill="#747474"/>
<path d="M0 56.1116C0 45.2274 8.79149 36.404 19.6363 36.404H106.691C106.691 47.2882 97.8993 56.1116 87.0545 56.1116H0Z" fill="#747474"/>
<path d="M139.657 25.519C140.817 29.7136 143.963 31.8108 149.095 31.8108C152.397 31.8108 154.896 30.6953 156.592 28.4641L163.553 32.4802C160.251 37.2549 155.387 39.6422 148.961 39.6422C143.428 39.6422 138.988 37.9688 135.641 34.6221C132.294 31.2754 130.621 27.0585 130.621 21.9714C130.621 16.929 132.272 12.7345 135.574 9.38773C138.876 5.99638 143.116 4.3007 148.292 4.3007C153.2 4.3007 157.239 5.99638 160.407 9.38773C163.62 12.7791 165.226 16.9737 165.226 21.9714C165.226 23.087 165.115 24.2695 164.892 25.519H139.657ZM139.523 18.8255H156.592C156.101 16.5497 155.075 14.8541 153.513 13.7385C151.996 12.6229 150.255 12.0651 148.292 12.0651C145.971 12.0651 144.053 12.6675 142.535 13.8724C141.018 15.0326 140.014 16.6836 139.523 18.8255Z" fill="#747474"/>
<path d="M177.912 14.7425C177.912 15.635 178.492 16.3712 179.652 16.9513C180.857 17.4868 182.307 17.9777 184.003 18.4239C185.699 18.8255 187.394 19.361 189.09 20.0303C190.786 20.6551 192.214 21.726 193.374 23.2432C194.579 24.7604 195.181 26.6569 195.181 28.9326C195.181 32.3686 193.887 35.0237 191.299 36.8979C188.755 38.7274 185.565 39.6422 181.727 39.6422C174.855 39.6422 170.17 36.9871 167.671 31.677L175.168 27.4601C176.149 30.3606 178.336 31.8108 181.727 31.8108C184.806 31.8108 186.346 30.8514 186.346 28.9326C186.346 28.0402 185.743 27.3262 184.539 26.7907C183.378 26.2106 181.95 25.6975 180.255 25.2512C178.559 24.805 176.863 24.2472 175.168 23.5779C173.472 22.9085 172.022 21.8599 170.817 20.4319C169.657 18.9594 169.077 17.1298 169.077 14.9433C169.077 11.6412 170.281 9.05306 172.691 7.17889C175.145 5.2601 178.18 4.3007 181.794 4.3007C184.516 4.3007 186.993 4.92542 189.224 6.17487C191.455 7.37969 193.218 9.11999 194.512 11.3958L187.149 15.4118C186.078 13.1361 184.293 11.9982 181.794 11.9982C180.679 11.9982 179.742 12.2436 178.983 12.7345C178.269 13.2253 177.912 13.8947 177.912 14.7425Z" fill="#747474"/>
<path d="M207.572 25.519C208.733 29.7136 211.879 31.8108 217.01 31.8108C220.312 31.8108 222.811 30.6953 224.507 28.4641L231.468 32.4802C228.166 37.2549 223.302 39.6422 216.876 39.6422C211.343 39.6422 206.903 37.9688 203.556 34.6221C200.21 31.2754 198.536 27.0585 198.536 21.9714C198.536 16.929 200.187 12.7345 203.489 9.38773C206.792 5.99638 211.031 4.3007 216.207 4.3007C221.116 4.3007 225.154 5.99638 228.322 9.38773C231.535 12.7791 233.141 16.9737 233.141 21.9714C233.141 23.087 233.03 24.2695 232.807 25.519H207.572ZM207.439 18.8255H224.507C224.016 16.5497 222.99 14.8541 221.428 13.7385C219.911 12.6229 218.17 12.0651 216.207 12.0651C213.887 12.0651 211.968 12.6675 210.451 13.8724C208.933 15.0326 207.929 16.6836 207.439 18.8255Z" fill="#747474"/>
<path d="M257.777 4.3007C261.436 4.3007 264.448 5.52783 266.813 7.9821C269.223 10.4364 270.428 13.8277 270.428 18.1562V38.7051H261.793V19.2271C261.793 16.996 261.191 15.3003 259.986 14.1401C258.781 12.9353 257.175 12.3329 255.167 12.3329C252.935 12.3329 251.151 13.0245 249.812 14.4078C248.473 15.7911 247.804 17.8661 247.804 20.6328V38.7051H239.169V5.23778H247.804V8.98612C249.901 5.86251 253.226 4.3007 257.777 4.3007Z" fill="#747474"/>
<path d="M314.896 5.23778H324.066L313.424 38.7051H305.191L299.033 18.4239L292.875 38.7051H284.642L273.999 5.23778H283.169L288.859 25.7867L294.95 5.23778H303.116L309.207 25.8537L314.896 5.23778Z" fill="#747474"/>
<path d="M390.763 5.23778H400L387.818 38.7051C386.077 43.5244 383.757 47.005 380.856 49.1469C378 51.3334 374.431 52.3151 370.147 52.092V44.0599C372.467 44.1045 374.297 43.6136 375.635 42.5873C377.019 41.561 378.112 39.9099 378.915 37.6341L365.194 5.23778H374.631L383.333 27.7278L390.763 5.23778Z" fill="#747474"/>
<path d="M361.003 35.9347C361.012 33.381 360.943 30.4404 360.932 27.8866C360.524 28.2781 354.094 36.6777 354.124 36.8329C354.495 38.724 356.453 39.965 358.321 39.4929C359.976 39.0745 360.996 37.7339 361.003 35.9347Z" fill="#747474"/>
<path d="M361.003 36.1868C361.012 33.633 355.723 31.916 355.711 29.3622C355.304 29.7537 353.447 33.6282 354.124 37.0849C354.495 38.9761 356.453 40.217 358.321 39.745C359.976 39.3265 360.996 37.986 361.003 36.1868Z" fill="#747474"/>
<path d="M343.563 4.26172C342.399 4.26172 341.221 4.37491 340.04 4.61238C330.467 6.53302 324.195 15.7893 326.058 25.2485C327.115 30.6167 330.544 35.1212 335.466 37.6041C340.378 40.0821 346.07 40.1879 351.083 37.8957C351.757 37.5881 352.405 37.2215 353.092 36.8351C353.41 36.6555 353.739 36.4697 354.072 36.2901L355.23 35.6638L355.548 37.0394C355.576 37.1599 355.608 37.2928 355.634 37.4269C355.768 38.1086 356.205 38.7262 356.829 39.1163C357.454 39.5063 357.813 39.2945 358.5 39.1235C359.837 38.7901 359.191 37.1095 359.197 35.6638C359.206 32.9569 361.012 31.2393 361.001 28.5927C361.001 28.2765 360.961 27.9689 360.887 27.7007C360.586 26.6081 359.803 25.9068 358.423 25.4958C357.117 25.107 355.697 25.1796 353.819 25.7333C352.344 26.1676 351 26.9834 349.461 28.3786C347.466 30.1898 344.973 30.9292 342.253 30.5171C339.921 30.1639 337.879 28.9655 336.505 27.1433C335.138 25.331 334.546 23.0535 334.834 20.7305C335.133 18.3313 336.49 16.1473 338.559 14.7385C340.645 13.3186 343.222 12.84 345.632 13.4232C347.192 13.8009 348.594 14.5958 350.044 15.9234C352.961 18.5946 357.312 19.2946 360.955 17.7062C358.999 9.74188 351.638 4.26172 343.563 4.26172Z" fill="#747474"/>
<path d="M361.003 35.9347C361.012 33.381 360.943 30.4404 360.932 27.8866C360.524 28.2781 354.094 36.6777 354.124 36.8329C354.495 38.724 356.453 39.965 358.321 39.4929C359.976 39.0745 360.996 37.7339 361.003 35.9347Z" fill="#747474"/>
<path d="M361.003 36.1868C361.012 33.633 361.011 31.0793 360.999 28.5256C360.592 28.917 353.447 33.6282 354.124 37.0849C354.495 38.9761 356.453 40.217 358.321 39.745C359.976 39.3265 360.996 37.986 361.003 36.1868Z" fill="#747474"/>
</svg>
