<svg width="123" height="81" viewBox="0 0 123 81" fill="none" xmlns="http://www.w3.org/2000/svg">
<path d="M9.98439 79.493H0L28.8779 0.875H38.7087L67.5866 79.493H57.6022L34.1005 13.3126H33.4861L9.98439 79.493ZM13.6709 48.7829H53.9157V57.2282H13.6709V48.7829Z" fill="white"/>
<path d="M95.9653 80.875C92.2276 80.875 88.8355 80.1712 85.7889 78.7637C82.7424 77.3305 80.3231 75.2704 78.5311 72.5833C76.739 69.8705 75.843 66.5948 75.843 62.756C75.843 59.3779 76.5086 56.6396 77.8398 54.541C79.1711 52.4169 80.9504 50.7534 83.1776 49.5506C85.4049 48.3478 87.8626 47.4521 90.5507 46.8635C93.2644 46.2493 95.9909 45.763 98.7302 45.4048C102.314 44.9441 105.22 44.5986 107.447 44.3683C109.7 44.1124 111.339 43.6901 112.363 43.1015C113.412 42.5129 113.937 41.4892 113.937 40.0305V39.7234C113.937 35.9358 112.9 32.9927 110.827 30.8942C108.779 28.7957 105.668 27.7464 101.495 27.7464C97.1686 27.7464 93.7764 28.6933 91.3188 30.5871C88.8611 32.4809 87.133 34.5026 86.1346 36.6523L77.5326 33.5813C79.0687 29.9985 81.1168 27.209 83.6769 25.2128C86.2626 23.1911 89.0787 21.7835 92.1252 20.9902C95.1973 20.1712 98.2182 19.7618 101.188 19.7618C103.082 19.7618 105.258 19.9921 107.716 20.4527C110.199 20.8878 112.593 21.7963 114.897 23.1783C117.227 24.5602 119.16 26.646 120.696 29.4355C122.232 32.225 123 35.9614 123 40.6447V79.493H113.937V71.5084H113.476C112.862 72.788 111.838 74.1571 110.404 75.6159C108.971 77.0746 107.063 78.3158 104.682 79.3395C102.302 80.3632 99.3959 80.875 95.9653 80.875ZM97.3478 72.7368C100.932 72.7368 103.953 72.033 106.411 70.6255C108.894 69.2179 110.763 67.4009 112.017 65.1744C113.297 62.9479 113.937 60.6063 113.937 58.1495V49.8577C113.553 50.3184 112.708 50.7406 111.403 51.1245C110.123 51.4828 108.638 51.8027 106.948 52.0842C105.284 52.3401 103.658 52.5705 102.071 52.7752C100.51 52.9543 99.2423 53.1079 98.2694 53.2358C95.9141 53.5429 93.7124 54.042 91.6644 54.733C89.6419 55.3984 88.0034 56.4092 86.749 57.7656C85.5201 59.0964 84.9057 60.9134 84.9057 63.2166C84.9057 66.3644 86.0706 68.7445 88.4002 70.3568C90.7555 71.9435 93.738 72.7368 97.3478 72.7368Z" fill="white"/>
<path d="M100.865 0.893296V8.7551H99.6789V0.893296H100.865Z" fill="white"/>
<path d="M103.433 5.25414V8.7551H102.285V2.85875H103.387V3.81844H103.46C103.596 3.50622 103.808 3.25542 104.098 3.06604C104.39 2.87666 104.757 2.78197 105.2 2.78197C105.602 2.78197 105.954 2.86643 106.256 3.03533C106.558 3.20168 106.792 3.44992 106.959 3.78005C107.125 4.11019 107.208 4.51838 107.208 5.00462V8.7551H106.06V5.14282C106.06 4.71543 105.949 4.38146 105.726 4.1409C105.503 3.89777 105.197 3.77621 104.808 3.77621C104.542 3.77621 104.305 3.8338 104.098 3.94896C103.893 4.06412 103.73 4.23303 103.61 4.45568C103.492 4.67577 103.433 4.94192 103.433 5.25414Z" fill="white"/>
<path d="M111.285 2.85875V3.78005H108.063V2.85875H111.285ZM108.927 1.44608H110.076V7.02381C110.076 7.24646 110.109 7.41409 110.175 7.52669C110.242 7.63674 110.328 7.71223 110.433 7.75318C110.54 7.79157 110.657 7.81076 110.782 7.81076C110.874 7.81076 110.955 7.80436 111.024 7.79157C111.093 7.77877 111.147 7.76854 111.185 7.76086L111.393 8.70904C111.326 8.73463 111.231 8.76022 111.109 8.78581C110.986 8.81396 110.832 8.82932 110.648 8.83188C110.346 8.83699 110.064 8.78325 109.803 8.67065C109.542 8.55804 109.331 8.38402 109.169 8.14857C109.008 7.91313 108.927 7.61754 108.927 7.26182V1.44608Z" fill="white"/>
<path d="M114.818 8.8741C114.237 8.8741 113.736 8.74998 113.316 8.50174C112.899 8.25094 112.576 7.89905 112.349 7.44608C112.123 6.99055 112.011 6.45696 112.011 5.84531C112.011 5.24134 112.123 4.70904 112.349 4.24838C112.576 3.78773 112.894 3.42817 113.301 3.16969C113.711 2.91121 114.189 2.78197 114.737 2.78197C115.07 2.78197 115.393 2.83699 115.705 2.94704C116.017 3.05708 116.298 3.22983 116.546 3.46527C116.794 3.70072 116.99 4.00654 117.133 4.38274C117.277 4.75638 117.349 5.21063 117.349 5.7455V6.15241H112.66V5.29253H116.223C116.223 4.99055 116.162 4.72311 116.039 4.49023C115.916 4.25478 115.743 4.06924 115.521 3.9336C115.3 3.79797 115.042 3.73015 114.745 3.73015C114.422 3.73015 114.141 3.80948 113.9 3.96815C113.662 4.12426 113.478 4.329 113.347 4.58236C113.219 4.83316 113.155 5.10571 113.155 5.40001V6.0718C113.155 6.46591 113.224 6.80117 113.362 7.07756C113.503 7.35395 113.699 7.56508 113.95 7.71095C114.201 7.85427 114.494 7.92593 114.829 7.92593C115.047 7.92593 115.245 7.89522 115.425 7.8338C115.604 7.76982 115.759 7.67513 115.889 7.54973C116.02 7.42433 116.12 7.2695 116.189 7.08523L117.276 7.28101C117.189 7.60091 117.032 7.88114 116.807 8.1217C116.584 8.35971 116.304 8.54525 115.966 8.67833C115.631 8.80884 115.248 8.8741 114.818 8.8741Z" fill="white"/>
<path d="M118.406 8.7551V2.85875H119.516V3.79541H119.577C119.685 3.47807 119.874 3.22855 120.146 3.04685C120.42 2.86259 120.729 2.77046 121.075 2.77046C121.147 2.77046 121.231 2.77301 121.329 2.77813C121.428 2.78325 121.506 2.78965 121.563 2.79733V3.89522C121.517 3.88242 121.435 3.86834 121.317 3.85299C121.199 3.83507 121.082 3.82612 120.964 3.82612C120.692 3.82612 120.45 3.8837 120.238 3.99886C120.028 4.11147 119.862 4.26886 119.739 4.47103C119.616 4.67065 119.554 4.89841 119.554 5.15433V8.7551H118.406Z" fill="white"/>
</svg>
