<svg width="552" height="101" viewBox="0 0 552 101" fill="none" xmlns="http://www.w3.org/2000/svg">
<path fill-rule="evenodd" clip-rule="evenodd" d="M74.1933 0.564941H25.8064C11.5539 0.564941 0 12.1188 0 26.3713V74.7583C0 89.0107 11.5539 100.565 25.8064 100.565H74.1933C88.4458 100.565 100 89.0107 100 74.7583V26.3713C100 12.1188 88.4458 0.564941 74.1933 0.564941ZM43.88 33.1783L45.9977 25.2749C46.7026 22.6438 45.1412 19.9392 42.51 19.2342C39.8789 18.5292 37.1743 20.0906 36.4692 22.7218L22.1691 76.0905C21.4642 78.7218 23.0256 81.4263 25.6568 82.1313C28.2879 82.8364 30.9925 81.2749 31.6975 78.6437L34.5475 68.0073H56.1059L53.94 76.0905C53.235 78.7218 54.7964 81.4263 57.4277 82.1313C60.0588 82.8364 62.7633 81.2749 63.4684 78.6437L77.7685 25.2749C78.4736 22.6438 76.9121 19.9392 74.2809 19.2342C71.6497 18.5292 68.9452 20.0906 68.2401 22.7218L65.4384 33.1783H43.88ZM58.7491 58.1427H37.1907L41.2368 43.0427H62.7952L58.7491 58.1427ZM454.446 27.8092C454.446 29.2091 455.011 30.5528 456.016 31.5492C456.512 32.0404 457.106 32.427 457.76 32.6854C458.416 32.9438 459.117 33.0685 459.823 33.0518C460.519 33.0693 461.211 32.9447 461.855 32.686C462.499 32.4273 463.081 32.0402 463.563 31.5492C464.065 31.0638 464.461 30.483 464.725 29.8427C464.989 29.2023 465.117 28.5158 465.099 27.8254C465.121 27.1296 464.996 26.437 464.731 25.7906C464.468 25.1444 464.069 24.5583 463.563 24.0691C463.081 23.5781 462.499 23.191 461.855 22.9323C461.211 22.6736 460.519 22.549 459.823 22.5665C459.117 22.5497 458.416 22.6745 457.76 22.9329C457.106 23.1913 456.512 23.5779 456.016 24.0691C455.011 25.0654 454.446 26.4092 454.446 27.8092ZM463.931 77.9V38.3107H455.548V77.9H463.931ZM206.92 47.3587C208.491 44.3965 210.873 41.9198 213.8 40.2053C216.443 38.695 219.419 37.8293 222.477 37.6815C225.534 37.5337 228.583 38.108 231.366 39.356C233.753 40.3411 235.861 41.8764 237.51 43.831V24.7224H245.959V77.9H237.51V71.9224C236.034 73.9451 234.073 75.5825 231.8 76.6913C229.226 77.9708 226.37 78.6104 223.484 78.5533C220.065 78.5836 216.708 77.6664 213.8 75.9074C210.858 74.139 208.476 71.6059 206.92 68.5906C205.182 65.2907 204.31 61.6204 204.382 57.9093C204.306 54.2395 205.179 50.6104 206.92 47.3587ZM235.774 50.9518C234.776 49.0924 233.279 47.5346 231.442 46.4466C229.606 45.3586 227.501 44.7817 225.355 44.7783C223.237 44.7709 221.156 45.2998 219.309 46.3135C217.404 47.3874 215.843 48.9598 214.801 50.8539C213.597 53.0146 212.997 55.4489 213.065 57.9093C213.002 60.411 213.6 62.8862 214.801 65.0955C215.841 67.0529 217.413 68.6918 219.343 69.8318C221.169 70.8631 223.246 71.3934 225.355 71.3671C227.464 71.374 229.539 70.8329 231.366 69.7992C233.275 68.6865 234.835 67.0819 235.874 65.1609C237.072 62.9624 237.671 60.4983 237.61 58.0074C237.637 55.5392 237.003 53.1072 235.774 50.9518ZM149.647 71.3671H132.381V27.9562H124V77.9H149.647V71.3671ZM163.64 40.2053C160.711 41.9271 158.32 44.4013 156.727 47.3587C154.986 50.6104 154.113 54.2395 154.189 57.9093C154.118 61.6204 154.99 65.2907 156.727 68.5906C158.293 71.5991 160.672 74.1298 163.606 75.9074C166.466 77.6641 169.781 78.5823 173.157 78.5533C176.064 78.6025 178.94 77.9637 181.54 76.6913C183.806 75.5885 185.784 73.9903 187.317 72.0204V77.9H195.766V38.3107H187.317V44.0597C185.792 42.1454 183.853 40.5839 181.64 39.4866C179.049 38.2258 176.184 37.5981 173.291 37.6574C169.896 37.6244 166.557 38.5059 163.64 40.2053ZM181.072 46.3462C182.982 47.4531 184.552 49.0444 185.614 50.9518C186.793 53.1447 187.379 55.5959 187.317 58.0727C187.371 60.5592 186.786 63.0191 185.614 65.2262C184.552 67.1427 182.984 68.7448 181.072 69.8645C179.248 70.9027 177.172 71.4441 175.061 71.4324C172.957 71.4396 170.89 70.8863 169.083 69.8318C167.143 68.6938 165.56 67.0552 164.508 65.0955C163.332 62.8781 162.746 60.4066 162.805 57.9093C162.742 55.4533 163.329 53.0231 164.508 50.8539C165.285 49.486 166.332 48.2826 167.588 47.3139C168.845 46.3452 170.285 45.6304 171.826 45.2109C173.367 44.7915 174.979 44.6759 176.565 44.8708C178.153 45.0657 179.685 45.5672 181.072 46.3462ZM267.697 38.6117C263.149 40.0988 259.351 43.2271 257.08 47.3587C255.401 50.6278 254.575 54.2523 254.675 57.9093C254.623 61.6185 255.494 65.2842 257.213 68.5906C258.793 71.6003 261.183 74.1305 264.127 75.9074C267.023 77.6654 270.369 78.5829 273.777 78.5533C276.674 78.6063 279.539 77.9673 282.126 76.6913C284.345 75.5566 286.258 73.922 287.703 71.9224V77.9H296.153V24.7224H287.703V43.831C286.054 41.8764 283.946 40.3411 281.559 39.356C277.204 37.3907 272.246 37.1246 267.697 38.6117ZM281.458 46.3462C283.352 47.464 284.908 49.0533 285.966 50.9518C287.158 53.1192 287.767 55.5469 287.737 58.0074C287.781 60.4966 287.184 62.9567 286 65.1609C284.941 67.0686 283.386 68.6688 281.492 69.7992C279.655 70.8371 277.569 71.3783 275.448 71.3671C273.349 71.394 271.283 70.8635 269.469 69.8318C267.529 68.6938 265.946 67.0552 264.894 65.0955C263.718 62.8781 263.132 60.4066 263.191 57.9093C263.129 55.4533 263.715 53.0231 264.894 50.8539C265.671 49.486 266.718 48.2826 267.975 47.3139C269.231 46.3452 270.671 45.6304 272.212 45.2109C273.754 44.7915 275.365 44.6759 276.952 44.8708C278.539 45.0657 280.071 45.5672 281.458 46.3462ZM344.341 61.1431H313.417C313.536 64.0513 314.82 66.7971 316.991 68.7866C319.171 70.6975 322.012 71.7253 324.94 71.661C326.918 71.7873 328.89 71.3244 330.595 70.3332C332.3 69.342 333.658 67.869 334.491 66.1081H343.507C342.322 69.7157 339.979 72.854 336.828 75.0581C333.351 77.4655 329.164 78.6931 324.906 78.5533C321.274 78.6155 317.692 77.7365 314.52 76.0054C311.472 74.3216 308.972 71.8308 307.306 68.8192C305.52 65.5112 304.623 61.813 304.701 58.0727C304.611 54.3388 305.484 50.6426 307.24 47.326C308.84 44.3092 311.314 41.821 314.353 40.1726C317.59 38.4593 321.226 37.593 324.906 37.6574C328.471 37.5983 331.991 38.4422 335.125 40.1072C338.116 41.6843 340.583 44.0641 342.238 46.9668C343.926 50.0945 344.776 53.5894 344.709 57.1254C344.699 58.4722 344.575 59.8158 344.341 61.1431ZM335.893 54.6103C335.906 53.2371 335.615 51.8772 335.039 50.6251C334.462 49.373 333.614 48.2584 332.554 47.3587C330.32 45.5075 327.465 44.5302 324.538 44.615C321.803 44.5572 319.15 45.5276 317.124 47.326C315.001 49.2114 313.688 51.8148 313.451 54.6103H335.893ZM373.73 37.6574C371.203 37.5869 368.702 38.173 366.483 39.356C364.449 40.4586 362.762 42.0854 361.607 44.0597V38.3107H353.225V77.9H361.607V57.0601C361.28 54.013 362.191 50.9622 364.146 48.5674C366.204 46.8307 368.881 45.9618 371.592 46.1501H373.73V37.6574ZM448.301 27.9562L433.14 77.9H423.689L412.936 40.1072L401.548 77.9H392.331L377.704 27.9562H386.587L397.173 68.6233L408.628 27.9562H418.012L428.665 68.4272L439.319 27.9562H448.301ZM481.463 76.8547C479.089 75.8635 477.026 74.2743 475.486 72.249C474.021 70.3649 473.192 68.0817 473.114 65.7162H481.798C481.87 66.5524 482.128 67.3629 482.555 68.0908C482.983 68.8187 483.567 69.4465 484.268 69.9298C485.888 71.0995 487.867 71.6981 489.878 71.6284C491.8 71.732 493.71 71.2652 495.355 70.2892C495.953 69.929 496.446 69.4241 496.785 68.8232C497.124 68.2223 497.299 67.5458 497.292 66.8594C497.299 66.1666 497.096 65.4874 496.71 64.9065C496.324 64.3256 495.772 63.8687 495.121 63.593C492.907 62.6035 490.604 61.8163 488.242 61.2411C485.727 60.5837 483.252 59.7876 480.829 58.8566C478.888 58.1019 477.167 56.8901 475.819 55.3289C474.352 53.5759 473.602 51.3527 473.716 49.09C473.708 47.0143 474.375 44.9897 475.619 43.3084C477.016 41.4556 478.913 40.0192 481.096 39.16C483.688 38.1118 486.473 37.6002 489.277 37.6574C493.271 37.4392 497.217 38.5948 500.432 40.9239C501.824 42.0666 502.948 43.49 503.726 45.0967C504.504 46.7035 504.918 48.4555 504.94 50.2333H496.558C496.522 49.4172 496.305 48.6184 495.926 47.8913C495.546 47.1641 495.009 46.5257 494.354 46.0195C492.825 44.8789 490.93 44.3111 489.01 44.4189C487.228 44.3124 485.456 44.7458 483.935 45.6602C483.381 46.0138 482.928 46.4989 482.618 47.0702C482.31 47.6415 482.153 48.2802 482.165 48.9266C482.158 49.4233 482.258 49.9157 482.46 50.3717C482.662 50.8276 482.959 51.2368 483.333 51.5725C484.17 52.3133 485.145 52.8899 486.205 53.271C487.341 53.663 489.01 54.1856 491.214 54.8062C493.673 55.4067 496.084 56.1818 498.428 57.1254C500.311 57.9164 501.989 59.1108 503.337 60.6205C504.776 62.3379 505.524 64.51 505.441 66.7287C505.473 68.8889 504.807 71.0037 503.538 72.7716C502.166 74.6165 500.307 76.0617 498.16 76.9527C495.556 77.9945 492.76 78.5058 489.945 78.4552C487.033 78.5314 484.138 77.9851 481.463 76.8547ZM520.803 61.1431H551.727C551.928 59.8133 552.017 58.4695 551.994 57.1254C552.065 53.5849 551.202 50.0863 549.49 46.9668C547.879 44.0756 545.458 41.6954 542.51 40.1072C539.379 38.4352 535.857 37.5908 532.291 37.6574C528.621 37.5927 524.997 38.4593 521.771 40.1726C518.722 41.819 516.237 44.307 514.625 47.326C512.894 50.6508 512.034 54.3431 512.12 58.0727C512.026 61.8147 512.923 65.517 514.724 68.8192C516.378 71.8285 518.867 74.3196 521.904 76.0054C525.08 77.7278 528.661 78.6063 532.291 78.5533C536.559 78.6978 540.759 77.4702 544.246 75.0581C547.388 72.8441 549.727 69.7094 550.925 66.1081H541.909C541.053 67.8575 539.684 69.3191 537.978 70.3076C536.272 71.2962 534.304 71.7672 532.325 71.661C529.407 71.7268 526.575 70.6983 524.41 68.7866C523.322 67.8085 522.444 66.6295 521.825 65.3177C521.206 64.0058 520.859 62.587 520.803 61.1431ZM542.446 50.6153C543.024 51.8697 543.308 53.2346 543.278 54.6103H520.836C521.102 51.8226 522.41 49.2288 524.51 47.326C526.542 45.539 529.191 44.5704 531.923 44.615C534.851 44.5176 537.711 45.4965 539.939 47.3587C541.011 48.2482 541.869 49.3607 542.446 50.6153Z" fill="#FC575E"/>
</svg>
