<svg width="100" height="101" viewBox="0 0 100 101" fill="none" xmlns="http://www.w3.org/2000/svg">
<path fill-rule="evenodd" clip-rule="evenodd" d="M25.8064 0.564941H74.1935C88.446 0.564941 100 12.1189 100 26.3714V74.7584C100 89.0109 88.446 100.565 74.1935 100.565H25.8064C11.554 100.565 0 89.0109 0 74.7584V26.3714C0 12.1189 11.554 0.564941 25.8064 0.564941ZM45.9979 25.275L43.8802 33.1784H65.4385L68.2405 22.7218C68.9455 20.0907 71.65 18.5292 74.281 19.2342C76.9125 19.9392 78.474 22.6438 77.769 25.275L63.4685 78.6439C62.7635 81.2749 60.059 82.8364 57.428 82.1314C54.797 81.4264 53.2355 78.7219 53.9405 76.0909L56.106 68.0074H34.5477L31.6978 78.6439C30.9927 81.2749 28.2882 82.8364 25.6569 82.1314C23.0257 81.4264 21.4643 78.7219 22.1693 76.0909L36.4695 22.7218C37.1746 20.0907 39.8791 18.5292 42.5103 19.2342C45.1414 19.9392 46.7029 22.6438 45.9979 25.275ZM37.1909 58.1429H58.7495L62.7955 43.0429H41.237L37.1909 58.1429Z" fill="#FC575E"/>
</svg>
