<svg width="150" height="101" viewBox="0 0 150 101" fill="none" xmlns="http://www.w3.org/2000/svg">
<path fill-rule="evenodd" clip-rule="evenodd" d="M59.9411 0.564941H89.4457C98.136 0.564941 105.181 7.61001 105.181 16.3006V45.805C105.181 54.4956 98.136 61.5406 89.4457 61.5406H59.9411C51.2505 61.5406 44.2054 54.4956 44.2054 45.805V16.3006C44.2054 7.61001 51.2505 0.564941 59.9411 0.564941ZM72.253 15.632L70.9616 20.4513H84.1073L85.8153 14.0753C86.2451 12.4709 87.8945 11.5188 89.4988 11.9487C91.1031 12.3786 92.0555 14.0277 91.6256 15.632L82.9061 48.1742C82.4762 49.7786 80.8268 50.7307 79.2225 50.3007C77.6183 49.8709 76.6658 48.2218 77.0957 46.6174L78.4165 41.6885H65.2713L63.5335 48.1742C63.1036 49.7786 61.4542 50.7307 59.8499 50.3007C58.2455 49.8709 57.2934 48.2218 57.7233 46.6174L66.4427 14.0753C66.8725 12.4709 68.5219 11.5188 70.1262 11.9487C71.7305 12.3786 72.6829 14.0277 72.253 15.632ZM66.8829 35.6735H80.028L82.4951 26.4662H69.35L66.8829 35.6735Z" fill="#FC575E"/>
<path d="M2.92381 98.0572H8.95019V100.333H-0.00195312V82.9316H2.92381V98.0572Z" fill="#FC575E"/>
<path d="M11.4213 89.6921C11.9773 88.6616 12.8118 87.7994 13.8342 87.1994C14.8524 86.6073 16.0179 86.3 17.2029 86.3116C18.2128 86.2908 19.2128 86.5098 20.1171 86.9494C20.8896 87.3317 21.5662 87.8756 22.0987 88.5427V86.5396H25.0478V100.334H22.0987V98.2848C21.5632 98.9714 20.8732 99.5281 20.0821 99.9128C19.1746 100.356 18.1709 100.579 17.1564 100.561C15.9777 100.571 14.8207 100.251 13.8226 99.6397C12.7984 99.0201 11.9679 98.1384 11.4213 97.0897C10.8149 95.9403 10.5105 94.6616 10.5355 93.3683C10.5089 92.0896 10.8136 90.825 11.4213 89.6921ZM21.5042 90.9439C21.1335 90.2793 20.5857 89.725 19.9189 89.339C19.4346 89.0677 18.8999 88.8933 18.3459 88.825C17.7919 88.7573 17.2296 88.7976 16.6916 88.9439C16.1537 89.0896 15.6509 89.339 15.2123 89.6762C14.7738 90.014 14.4084 90.4335 14.1373 90.9098C13.7258 91.6659 13.521 92.5122 13.5428 93.3683C13.5223 94.2384 13.7268 95.0994 14.1373 95.872C14.5043 96.5549 15.0568 97.1262 15.7342 97.5226C16.365 97.8896 17.0863 98.0829 17.8207 98.0799C18.5575 98.0842 19.282 97.8958 19.9189 97.5336C20.5862 97.1439 21.1338 96.5854 21.5042 95.9177C21.9132 95.1488 22.1177 94.2915 22.0987 93.425C22.1203 92.5622 21.9157 91.7079 21.5042 90.9439Z" fill="#FC575E"/>
<path d="M28.941 89.6921C29.4893 88.6598 30.3206 87.797 31.3422 87.1995C32.2649 86.6732 33.3036 86.372 34.3708 86.3202C35.438 86.269 36.5022 86.469 37.4735 86.9037C38.3068 87.247 39.0426 87.7818 39.6183 88.4629V81.8049H42.5674V100.334H39.6183V98.2507C39.1031 98.9556 38.4187 99.5263 37.625 99.9129C36.7269 100.359 35.73 100.581 34.7226 100.561C33.5292 100.572 32.3572 100.253 31.3422 99.6397C30.3153 99.0233 29.4841 98.1409 28.941 97.0903C28.3345 95.9403 28.0302 94.6617 28.0551 93.3684C28.0285 92.0897 28.3333 90.8251 28.941 89.6921ZM39.0122 90.944C38.664 90.2964 38.1413 89.7531 37.5004 89.3745C36.8595 88.9952 36.1247 88.794 35.3754 88.7927C34.6366 88.7903 33.9097 88.9745 33.2655 89.3281C32.6005 89.7019 32.0556 90.2501 31.6919 90.9098C31.2713 91.6629 31.0621 92.5111 31.0858 93.3684C31.0637 94.2397 31.2725 95.1025 31.6919 95.872C32.0548 96.5543 32.6033 97.1251 33.2772 97.5226C33.9146 97.8818 34.6394 98.0665 35.3754 98.0574C36.1119 98.0598 36.836 97.8714 37.4735 97.5111C38.1399 97.1233 38.6843 96.5641 39.0471 95.8952C39.4656 95.1287 39.6744 94.2702 39.6533 93.4025C39.6624 92.5428 39.4414 91.6952 39.0122 90.944Z" fill="#FC575E"/>
<path d="M46.449 89.6921C47.2419 88.2525 48.5673 87.1623 50.155 86.6446C51.7428 86.1263 53.4731 86.219 54.9932 86.9037C55.8264 87.247 56.5623 87.7818 57.138 88.4629V81.8049H60.087V100.334H57.138V98.2507C56.6331 98.9476 55.9659 99.5172 55.1914 99.9129C54.2885 100.357 53.2882 100.58 52.2772 100.561C51.0876 100.571 49.9193 100.252 48.9085 99.6397C47.8812 99.0202 47.0468 98.1385 46.4956 97.0903C45.8955 95.9379 45.5915 94.6604 45.6097 93.3684C45.5747 92.094 45.863 90.8312 46.449 89.6921ZM56.5319 90.944C56.162 90.2824 55.619 89.7287 54.9582 89.3391C54.4739 89.0678 53.9392 88.8934 53.3852 88.8251C52.8312 88.7574 52.2689 88.7976 51.7309 88.944C51.1929 89.0897 50.6901 89.3391 50.2517 89.6763C49.8131 90.0141 49.4477 90.4336 49.1766 90.9098C48.7651 91.6659 48.5603 92.5123 48.5821 93.3684C48.5617 94.2385 48.7661 95.0995 49.1766 95.872C49.5437 96.555 50.0962 97.1263 50.7736 97.5226C51.4066 97.8818 52.1278 98.0665 52.86 98.0574C53.6005 98.0611 54.3287 97.8726 54.9698 97.5111C55.6311 97.1172 56.174 96.5598 56.5435 95.8952C56.9566 95.1269 57.1651 94.2696 57.1496 93.4025C57.1601 92.5452 56.9475 91.6995 56.5319 90.944Z" fill="#FC575E"/>
<path d="M76.9073 94.4949H66.1134C66.1548 95.5083 66.6024 96.465 67.3609 97.1577C68.1213 97.8236 69.1134 98.1821 70.1347 98.1595C70.8256 98.2034 71.514 98.0425 72.1091 97.6967C72.7042 97.3516 73.178 96.8382 73.4689 96.2248H76.6158C76.2018 97.4815 75.3847 98.5754 74.2847 99.3431C73.0707 100.182 71.6091 100.61 70.1231 100.561C68.8561 100.583 67.6048 100.277 66.4981 99.6736C65.4341 99.0864 64.5615 98.2187 63.9804 97.1693C63.3567 96.0169 63.0439 94.7284 63.0713 93.4248C63.039 92.1242 63.3439 90.8358 63.9573 89.6803C64.5158 88.629 65.3792 87.7626 66.4396 87.1882C67.5701 86.5912 68.8384 86.2894 70.1231 86.3113C71.3676 86.2912 72.5963 86.5851 73.6902 87.165C74.7341 87.7144 75.5957 88.5437 76.1731 89.5553C76.7622 90.6449 77.0585 91.8626 77.0353 93.0949C77.0317 93.5644 76.989 94.0321 76.9073 94.4949ZM73.9579 92.2187C73.9634 91.74 73.8615 91.2662 73.6603 90.8297C73.4591 90.3937 73.1628 90.0053 72.7926 89.6918C72.0128 89.0467 71.0164 88.7065 69.9951 88.7358C69.0402 88.7156 68.114 89.054 67.4073 89.6803C66.6658 90.3376 66.2079 91.2443 66.125 92.2187H73.9579Z" fill="#FC575E"/>
<path d="M84.6354 86.9037C85.4104 86.4915 86.283 86.2872 87.1653 86.3116V89.2708H86.4189C85.4726 89.2055 84.5378 89.5079 83.8195 90.1134C83.1378 90.9476 82.8196 92.0104 82.9336 93.0726V100.334H80.008V86.5396H82.9336V88.5427C83.3372 87.8549 83.9256 87.2878 84.6354 86.9037Z" fill="#FC575E"/>
<path d="M113.194 82.9316L107.902 100.333H104.603L100.849 87.1651L96.875 100.333H93.6573L88.5519 82.9316H91.6525L95.3476 97.1011L99.3458 82.9316H102.621L106.34 97.0328L110.058 82.9316H113.194Z" fill="#FC575E"/>
<path d="M115.887 84.1833C115.535 83.8364 115.338 83.3681 115.338 82.8803C115.338 82.3924 115.535 81.9242 115.887 81.5772C116.06 81.4059 116.267 81.2711 116.495 81.1809C116.724 81.0912 116.969 81.0473 117.215 81.0534C117.458 81.0473 117.7 81.0906 117.924 81.1809C118.149 81.2711 118.352 81.4059 118.521 81.5772C118.698 81.7473 118.837 81.9516 118.929 82.1766C119.021 82.4022 119.065 82.6431 119.057 82.8857C119.063 83.1266 119.018 83.3656 118.926 83.5888C118.834 83.812 118.696 84.0144 118.521 84.1833C118.352 84.354 118.149 84.4894 117.924 84.5797C117.7 84.6693 117.458 84.7132 117.215 84.7071C116.969 84.7126 116.724 84.6693 116.495 84.579C116.267 84.4894 116.06 84.3547 115.887 84.1833ZM118.649 86.5394V100.333H115.723V86.5394H118.649Z" fill="#FC575E"/>
<path d="M124.769 99.9694C123.94 99.6237 123.22 99.0701 122.682 98.3646C122.171 97.7079 121.882 96.9127 121.854 96.0883H124.885C124.91 96.3798 125.001 96.6621 125.15 96.9158C125.299 97.1694 125.503 97.3883 125.748 97.5566C126.313 97.964 127.004 98.1725 127.706 98.1481C128.377 98.1847 129.043 98.0219 129.618 97.6816C129.826 97.556 129.998 97.3804 130.117 97.1707C130.235 96.9615 130.296 96.7255 130.294 96.4865C130.296 96.2451 130.225 96.0085 130.09 95.806C129.956 95.6036 129.763 95.4445 129.536 95.3487C128.763 95.0036 127.959 94.7292 127.135 94.5292C126.257 94.2999 125.393 94.0225 124.547 93.6981C123.87 93.4353 123.269 93.0127 122.799 92.4688C122.287 91.8585 122.025 91.0835 122.064 90.295C122.062 89.5719 122.295 88.8664 122.729 88.2804C123.217 87.6353 123.878 87.1347 124.64 86.8353C125.545 86.47 126.518 86.292 127.496 86.3115C128.89 86.2359 130.268 86.6383 131.39 87.4499C131.876 87.8481 132.268 88.3438 132.539 88.9036C132.811 89.4633 132.956 90.0743 132.963 90.6938H130.037C130.024 90.4091 129.949 90.131 129.817 89.8774C129.684 89.6243 129.497 89.4017 129.268 89.2255C128.735 88.828 128.073 88.6298 127.403 88.6676C126.781 88.6304 126.162 88.7816 125.631 89.0999C125.438 89.2231 125.28 89.3926 125.172 89.5914C125.064 89.7908 125.009 90.0133 125.013 90.2383C125.011 90.4115 125.046 90.5828 125.117 90.742C125.187 90.9005 125.291 91.0432 125.421 91.1603C125.713 91.4182 126.054 91.6194 126.424 91.7518C126.82 91.8883 127.403 92.0707 128.173 92.2871C129.031 92.4963 129.872 92.7664 130.69 93.095C131.348 93.3707 131.933 93.7865 132.404 94.3127C132.906 94.9115 133.167 95.6682 133.138 96.4414C133.149 97.1938 132.917 97.9304 132.474 98.5469C131.995 99.1896 131.346 99.6932 130.597 100.004C129.687 100.366 128.712 100.544 127.729 100.527C126.713 100.554 125.702 100.363 124.769 99.9694Z" fill="#FC575E"/>
<path d="M149.294 94.495H138.5C138.52 94.9981 138.64 95.4926 138.857 95.9493C139.073 96.4066 139.379 96.8176 139.759 97.1579C140.515 97.8243 141.503 98.1829 142.521 98.1597C143.213 98.1969 143.9 98.0329 144.495 97.6883C145.09 97.3438 145.568 96.8347 145.867 96.2249H149.014C148.596 97.4798 147.779 98.5719 146.683 99.3432C145.465 100.184 144 100.612 142.51 100.561C141.243 100.58 139.993 100.274 138.885 99.6737C137.824 99.0859 136.956 98.2182 136.379 97.1694C135.749 96.0188 135.437 94.7292 135.47 93.4249C135.439 92.1255 135.74 90.839 136.343 89.6804C136.906 88.6286 137.774 87.7615 138.838 87.1883C139.964 86.5914 141.229 86.2889 142.51 86.3115C143.754 86.2883 144.984 86.5828 146.077 87.1652C147.106 87.7188 147.951 88.5481 148.513 89.5554C149.111 90.6426 149.412 91.8615 149.387 93.095C149.395 93.5633 149.364 94.0316 149.294 94.495ZM146.345 92.2188C146.356 91.7396 146.256 91.264 146.054 90.8268C145.853 90.3896 145.554 90.0018 145.179 89.692C144.402 89.0432 143.404 88.7018 142.382 88.7359C141.428 88.7207 140.503 89.0579 139.794 89.6804C139.061 90.3438 138.604 91.2475 138.512 92.2188H146.345Z" fill="#FC575E"/>
</svg>
