<svg width="68" height="33" viewBox="0 0 68 33" fill="none" xmlns="http://www.w3.org/2000/svg">
<g clip-path="url(#clip0_2431_949)">
<path d="M17.0943 7.20846C17.8112 7.21845 18.394 6.6351 18.3965 5.89972L18.4059 2.37505C18.4159 1.65818 17.8326 1.07534 17.0972 1.07291L1.63211 1.07405C0.915243 1.06406 0.332396 1.64741 0.329967 2.38279L0.32048 5.90744C0.310497 6.62431 0.893841 7.20715 1.62925 7.20958C1.84465 7.20811 2.00182 7.3816 2.00328 7.597L2.01255 8.41402C2.00646 8.6109 1.86999 8.75297 1.6731 8.74688C1.15312 8.74299 0.668956 9.09168 0.57588 9.60484C0.443088 10.2854 0.970878 10.8909 1.61708 10.8865L17.0451 10.9005C17.6097 10.9078 18.1082 10.4885 18.1601 9.92729C18.2264 9.29546 17.7213 8.74551 17.0936 8.74235C16.8782 8.74381 16.721 8.57032 16.7196 8.35492L16.7144 7.60102C16.713 7.38561 16.8974 7.20237 17.0943 7.20846Z" fill="#CCCCCC"/>
<path d="M17.0913 25.8936C16.8759 25.895 16.7188 25.7216 16.7173 25.5062L16.708 24.6891C16.7141 24.4923 16.8506 24.3502 17.0475 24.3563C17.612 24.3636 18.1106 23.9442 18.1625 23.3831C18.2287 22.7512 17.7236 22.2013 17.0959 22.1981L1.66789 22.1842C1.10332 22.1769 0.604772 22.5962 0.552877 23.1574C0.486606 23.7892 0.991733 24.3392 1.61942 24.3423C1.83482 24.3409 1.99199 24.5143 1.99345 24.7297L1.99859 25.4836C2.00005 25.699 1.82655 25.8562 1.61115 25.8577C0.894282 25.8477 0.311436 26.431 0.309006 27.1664L0.299544 30.6911C0.289561 31.4079 0.872906 31.9908 1.60829 31.9932L17.0734 31.9921C17.7902 32.0021 18.3731 31.4187 18.3755 30.6833L18.385 27.1587C18.3915 26.4864 17.8082 25.9036 17.0913 25.8936Z" fill="#CCCCCC"/>
<path d="M65.3755 14.2117L16.7035 14.1934L16.6996 11.4302L2.00697 11.4187L2.00245 21.6805L16.7136 21.6845L16.7097 18.9213L65.3817 18.9396C66.7002 18.9417 67.7589 17.8835 67.7611 16.565C67.7523 15.2726 66.6865 14.1954 65.3755 14.2117Z" fill="#CCCCCC"/>
</g>
<defs>
<clipPath id="clip0_2431_949">
<rect width="68" height="33" fill="white"/>
</clipPath>
</defs>
</svg>
