<svg width="120" height="81" viewBox="0 0 120 81" fill="none" xmlns="http://www.w3.org/2000/svg">
<path d="M42.4607 59.4964H16.273L9.96857 79.798H0L25.3256 1.39196H33.6776L58.5721 79.798H48.6574L42.4607 59.4964ZM18.9672 50.8265H39.8204L29.4746 16.7931L18.9672 50.8265Z" fill="white"/>
<path d="M109.6 79.798C109.205 79.0441 108.882 78.1107 108.63 76.9978C108.415 75.849 108.253 74.6643 108.145 73.4437C107.14 74.4489 106.008 75.4002 104.751 76.2977C103.529 77.1952 102.182 77.985 100.709 78.6671C99.2007 79.3492 97.6022 79.8877 95.9138 80.2826C94.2254 80.6775 92.4293 80.875 90.5254 80.875C87.436 80.875 84.634 80.4262 82.1194 79.5287C79.6408 78.6312 77.5393 77.4106 75.815 75.8669C74.0548 74.3591 72.6897 72.5641 71.7198 70.4819C70.7858 68.3638 70.3188 66.0841 70.3188 63.6429C70.3188 60.4478 70.9475 57.6476 72.2048 55.2423C73.498 52.8369 75.3121 50.8265 77.6471 49.211C79.982 47.6314 82.784 46.4467 86.053 45.6569C89.3579 44.8671 93.04 44.4722 97.0992 44.4722H107.984V39.8949C107.984 38.1358 107.661 36.5562 107.014 35.1561C106.367 33.756 105.451 32.5533 104.266 31.5481C103.08 30.5788 101.626 29.8249 99.9012 29.2864C98.2128 28.7479 96.3089 28.4787 94.1895 28.4787C92.2137 28.4787 90.4356 28.73 88.855 29.2326C87.3103 29.7352 85.9991 30.3993 84.9214 31.225C83.8437 32.0507 82.9996 33.038 82.3889 34.1868C81.8141 35.2997 81.5267 36.4665 81.5267 37.6871H71.5043C71.5402 35.569 72.079 33.4867 73.1208 31.4404C74.1985 29.3941 75.7432 27.5453 77.7548 25.8938C79.7306 24.2783 82.1374 22.968 84.9753 21.9628C87.8491 20.9576 91.1001 20.455 94.7283 20.455C98.0332 20.455 101.105 20.8678 103.943 21.6935C106.78 22.4833 109.241 23.686 111.325 25.3015C113.372 26.9529 114.989 28.9992 116.174 31.4404C117.36 33.8816 117.952 36.7357 117.952 40.0026V67.0893C117.952 69.0279 118.132 71.0922 118.491 73.2821C118.85 75.4361 119.353 77.3209 120 78.9364V79.798H109.6ZM91.9802 72.2051C93.9201 72.2051 95.7342 71.9538 97.4225 71.4512C99.1109 70.9486 100.656 70.2844 102.057 69.4587C103.422 68.633 104.607 67.6996 105.613 66.6585C106.619 65.5815 107.409 64.4686 107.984 63.3198V51.5266H98.7158C95.2672 51.5266 92.2497 51.8317 89.6632 52.442C87.1127 53.0164 85.0831 53.914 83.5743 55.1346C82.4966 55.9962 81.6704 57.0193 81.0956 58.204C80.5568 59.3887 80.2874 60.735 80.2874 62.2428C80.2874 63.6788 80.5209 65.0071 80.9879 66.2277C81.4908 67.4483 82.2272 68.4894 83.1971 69.351C84.167 70.2485 85.3884 70.9486 86.8612 71.4512C88.3341 71.9538 90.0404 72.2051 91.9802 72.2051Z" fill="white"/>
<path d="M57.6124 5.45026H56.4525V8.11248H55.321V1.25195H57.4992C57.8544 1.25509 58.1813 1.30064 58.4799 1.3886C58.7785 1.47655 59.0363 1.60534 59.2532 1.77497C59.4669 1.94774 59.6335 2.16292 59.7529 2.4205C59.8724 2.67495 59.9321 2.97337 59.9321 3.31576C59.9321 3.55136 59.9007 3.76497 59.8378 3.95658C59.7781 4.1482 59.6932 4.32097 59.5832 4.47489C59.4732 4.62881 59.3412 4.76389 59.1872 4.88012C59.0331 4.99634 58.8618 5.09686 58.6732 5.18168L60.1396 8.05123V8.11248H58.9278L57.6124 5.45026ZM56.4525 4.52672H57.5134C57.7146 4.52358 57.8953 4.49374 58.0556 4.4372C58.219 4.37751 58.3573 4.2927 58.4705 4.18275C58.5711 4.08852 58.6497 3.97229 58.7062 3.83407C58.7628 3.69586 58.7911 3.53879 58.7911 3.36288C58.7911 3.16498 58.7597 2.99221 58.6968 2.84457C58.6371 2.69379 58.5475 2.56814 58.4281 2.46762C58.3181 2.37338 58.1845 2.30271 58.0273 2.25559C57.8701 2.20533 57.6941 2.17863 57.4992 2.17548H56.4525V4.52672Z" fill="white"/>
<path d="M60.7338 5.51622C60.7338 5.14555 60.7873 4.80315 60.8941 4.48903C61.001 4.17176 61.1566 3.8969 61.3609 3.66445C61.5621 3.43199 61.8088 3.2498 62.1011 3.11786C62.3935 2.98593 62.7266 2.91996 63.1007 2.91996C63.4747 2.91996 63.8079 2.98593 64.1002 3.11786C64.3957 3.2498 64.6456 3.43199 64.8499 3.66445C65.0511 3.8969 65.2051 4.17176 65.312 4.48903C65.4188 4.80315 65.4723 5.14555 65.4723 5.51622V5.61517C65.4723 5.98898 65.4188 6.33295 65.312 6.64708C65.2051 6.96121 65.0511 7.2345 64.8499 7.46695C64.6487 7.6994 64.4004 7.8816 64.105 8.01353C63.8126 8.14546 63.481 8.21143 63.1101 8.21143C62.7361 8.21143 62.4013 8.14546 62.1058 8.01353C61.8104 7.8816 61.5621 7.6994 61.3609 7.46695C61.1566 7.2345 61.001 6.96121 60.8941 6.64708C60.7873 6.33295 60.7338 5.98898 60.7338 5.61517V5.51622ZM61.8607 5.61517C61.8607 5.84448 61.8843 6.06123 61.9314 6.26541C61.9817 6.4696 62.0587 6.64865 62.1624 6.80257C62.263 6.95649 62.3919 7.079 62.549 7.1701C62.7062 7.25806 62.8932 7.30203 63.1101 7.30203C63.3207 7.30203 63.5046 7.25806 63.6618 7.1701C63.8189 7.079 63.9478 6.95649 64.0484 6.80257C64.149 6.64865 64.2228 6.4696 64.27 6.26541C64.3203 6.06123 64.3454 5.84448 64.3454 5.61517V5.51622C64.3454 5.29319 64.3203 5.07959 64.27 4.8754C64.2197 4.67122 64.1458 4.49217 64.0484 4.33825C63.9446 4.18433 63.8142 4.06182 63.657 3.97072C63.503 3.87962 63.3176 3.83407 63.1007 3.83407C62.8869 3.83407 62.7015 3.87962 62.5443 3.97072C62.3903 4.06182 62.263 4.18433 62.1624 4.33825C62.0587 4.49217 61.9817 4.67122 61.9314 4.8754C61.8843 5.07959 61.8607 5.29319 61.8607 5.51622V5.61517Z" fill="white"/>
<path d="M71.0313 5.61517C71.0313 5.85077 71.014 6.07537 70.9794 6.28897C70.9448 6.50258 70.8945 6.70048 70.8285 6.88267C70.7531 7.09942 70.6525 7.29575 70.5268 7.47166C70.4011 7.64757 70.2502 7.79364 70.0742 7.90987C69.9327 8.00411 69.774 8.07636 69.598 8.12662C69.4251 8.18002 69.2365 8.20672 69.0322 8.20672C68.8247 8.20672 68.6361 8.18159 68.4664 8.13133C68.2967 8.08107 68.1442 8.00725 68.009 7.90987C67.9399 7.85961 67.8739 7.80621 67.811 7.74966C67.7513 7.68998 67.6932 7.62558 67.6366 7.55648L67.5847 8.11248H66.5663V0.875H67.6932V3.51366C67.7592 3.43199 67.8315 3.35817 67.91 3.29221C67.9886 3.22624 68.0735 3.16813 68.1646 3.11786C68.2841 3.0519 68.4145 3.00321 68.556 2.9718C68.7006 2.93724 68.8562 2.91996 69.0227 2.91996C69.2428 2.91996 69.4439 2.94981 69.6262 3.00949C69.8117 3.06603 69.9783 3.14771 70.126 3.25451C70.2518 3.34247 70.3633 3.45084 70.4608 3.57963C70.5614 3.70528 70.6494 3.8435 70.7248 3.99428C70.8254 4.20474 70.9008 4.43877 70.9511 4.69635C71.0046 4.95394 71.0313 5.22723 71.0313 5.51622V5.61517ZM69.9044 5.51622C69.9044 5.37172 69.895 5.23194 69.8761 5.09686C69.8604 4.95865 69.8368 4.82986 69.8054 4.71049C69.7614 4.56599 69.7033 4.43563 69.631 4.3194C69.5618 4.20003 69.4675 4.09951 69.3481 4.01784C69.2695 3.9613 69.1799 3.91889 69.0793 3.89062C68.9787 3.86235 68.8656 3.84821 68.7399 3.84821C68.5858 3.84821 68.4475 3.8702 68.3249 3.91418C68.2024 3.95501 68.0955 4.0147 68.0043 4.09323C67.9383 4.14663 67.8786 4.20946 67.8252 4.2817C67.7749 4.35081 67.7309 4.4262 67.6932 4.50788V6.61881C67.7372 6.71305 67.789 6.79943 67.8487 6.87796C67.9116 6.95335 67.9823 7.02089 68.0609 7.08057C68.1489 7.1434 68.2495 7.19366 68.3627 7.23135C68.479 7.26591 68.6078 7.28319 68.7493 7.28319C68.8782 7.28319 68.9945 7.26748 69.0982 7.23607C69.2019 7.20151 69.2946 7.15596 69.3764 7.09942C69.4864 7.02089 69.576 6.92194 69.6451 6.80257C69.7174 6.68006 69.7724 6.54342 69.8101 6.39264C69.8416 6.27955 69.8651 6.15704 69.8808 6.02511C69.8966 5.89317 69.9044 5.75653 69.9044 5.61517V5.51622Z" fill="white"/>
<path d="M71.9461 5.51622C71.9461 5.14555 71.9996 4.80315 72.1065 4.48903C72.2133 4.17176 72.3689 3.8969 72.5732 3.66445C72.7744 3.43199 73.0211 3.2498 73.3135 3.11786C73.6058 2.98593 73.939 2.91996 74.313 2.91996C74.6871 2.91996 75.0202 2.98593 75.3126 3.11786C75.608 3.2498 75.8579 3.43199 76.0622 3.66445C76.2634 3.8969 76.4174 4.17176 76.5243 4.48903C76.6312 4.80315 76.6846 5.14555 76.6846 5.51622V5.61517C76.6846 5.98898 76.6312 6.33295 76.5243 6.64708C76.4174 6.96121 76.2634 7.2345 76.0622 7.46695C75.8611 7.6994 75.6127 7.8816 75.3173 8.01353C75.025 8.14546 74.6933 8.21143 74.3224 8.21143C73.9484 8.21143 73.6136 8.14546 73.3182 8.01353C73.0227 7.8816 72.7744 7.6994 72.5732 7.46695C72.3689 7.2345 72.2133 6.96121 72.1065 6.64708C71.9996 6.33295 71.9461 5.98898 71.9461 5.61517V5.51622ZM73.073 5.61517C73.073 5.84448 73.0966 6.06123 73.1437 6.26541C73.194 6.4696 73.271 6.64865 73.3748 6.80257C73.4753 6.95649 73.6042 7.079 73.7614 7.1701C73.9185 7.25806 74.1056 7.30203 74.3224 7.30203C74.533 7.30203 74.7169 7.25806 74.8741 7.1701C75.0312 7.079 75.1601 6.95649 75.2607 6.80257C75.3613 6.64865 75.4351 6.4696 75.4823 6.26541C75.5326 6.06123 75.5577 5.84448 75.5577 5.61517V5.51622C75.5577 5.29319 75.5326 5.07959 75.4823 4.8754C75.432 4.67122 75.3581 4.49217 75.2607 4.33825C75.157 4.18433 75.0265 4.06182 74.8694 3.97072C74.7153 3.87962 74.5299 3.83407 74.313 3.83407C74.0993 3.83407 73.9138 3.87962 73.7567 3.97072C73.6026 4.06182 73.4753 4.18433 73.3748 4.33825C73.271 4.49217 73.194 4.67122 73.1437 4.8754C73.0966 5.07959 73.073 5.29319 73.073 5.51622V5.61517Z" fill="white"/>
<path d="M80.0229 1.77026V3.0142H81.9418V3.85763H80.0229V6.29369C80.0229 6.48216 80.0449 6.6408 80.0889 6.76959C80.1361 6.89524 80.2005 6.99419 80.2822 7.06644C80.3639 7.14183 80.4614 7.19523 80.5745 7.22664C80.6877 7.25806 80.8119 7.27376 80.947 7.27376C81.0445 7.27376 81.145 7.26905 81.2488 7.25963C81.3525 7.2502 81.4531 7.23764 81.5505 7.22193C81.6448 7.20937 81.7328 7.19523 81.8145 7.17952C81.8994 7.16068 81.9701 7.14497 82.0267 7.1324L82.1493 7.90987C82.0676 7.96013 81.9686 8.00411 81.8523 8.0418C81.7391 8.07636 81.6165 8.1062 81.4845 8.13133C81.3525 8.15646 81.2142 8.17531 81.0696 8.18787C80.9282 8.20358 80.7867 8.21143 80.6453 8.21143C80.3875 8.21143 80.1502 8.17688 79.9333 8.10777C79.7196 8.03552 79.5357 7.924 79.3817 7.77322C79.2277 7.62558 79.1066 7.43554 79.0186 7.20308C78.9338 6.97063 78.8913 6.69106 78.8913 6.36436V3.85763H77.656V3.0142H78.8913V1.77026H80.0229Z" fill="white"/>
<path d="M83.1585 5.51622C83.1585 5.14555 83.2119 4.80315 83.3188 4.48903C83.4256 4.17176 83.5812 3.8969 83.7855 3.66445C83.9867 3.43199 84.2335 3.2498 84.5258 3.11786C84.8181 2.98593 85.1513 2.91996 85.5253 2.91996C85.8994 2.91996 86.2326 2.98593 86.5249 3.11786C86.8203 3.2498 87.0702 3.43199 87.2745 3.66445C87.4757 3.8969 87.6297 4.17176 87.7366 4.48903C87.8435 4.80315 87.8969 5.14555 87.8969 5.51622V5.61517C87.8969 5.98898 87.8435 6.33295 87.7366 6.64708C87.6297 6.96121 87.4757 7.2345 87.2745 7.46695C87.0734 7.6994 86.8251 7.8816 86.5296 8.01353C86.2373 8.14546 85.9057 8.21143 85.5348 8.21143C85.1607 8.21143 84.826 8.14546 84.5305 8.01353C84.235 7.8816 83.9867 7.6994 83.7855 7.46695C83.5812 7.2345 83.4256 6.96121 83.3188 6.64708C83.2119 6.33295 83.1585 5.98898 83.1585 5.61517V5.51622ZM84.2853 5.61517C84.2853 5.84448 84.3089 6.06123 84.356 6.26541C84.4063 6.4696 84.4833 6.64865 84.5871 6.80257C84.6877 6.95649 84.8165 7.079 84.9737 7.1701C85.1309 7.25806 85.3179 7.30203 85.5348 7.30203C85.7454 7.30203 85.9292 7.25806 86.0864 7.1701C86.2436 7.079 86.3724 6.95649 86.473 6.80257C86.5736 6.64865 86.6475 6.4696 86.6946 6.26541C86.7449 6.06123 86.7701 5.84448 86.7701 5.61517V5.51622C86.7701 5.29319 86.7449 5.07959 86.6946 4.8754C86.6443 4.67122 86.5705 4.49217 86.473 4.33825C86.3693 4.18433 86.2388 4.06182 86.0817 3.97072C85.9277 3.87962 85.7422 3.83407 85.5253 3.83407C85.3116 3.83407 85.1261 3.87962 84.969 3.97072C84.815 4.06182 84.6877 4.18433 84.5871 4.33825C84.4833 4.49217 84.4063 4.67122 84.356 4.8754C84.3089 5.07959 84.2853 5.29319 84.2853 5.51622V5.61517Z" fill="white"/>
<path d="M95.8937 1.25195L96.7424 4.18747L97.6806 1.25195H99.0904V8.11248H98.0248V5.7848L98.0908 2.72207L97.0347 5.99684H96.4453L95.4882 2.83515L95.5495 5.7848V8.11248H94.4887V1.25195H95.8937Z" fill="white"/>
<path d="M99.9769 5.51622C99.9769 5.14555 100.03 4.80315 100.137 4.48903C100.244 4.17176 100.4 3.8969 100.604 3.66445C100.805 3.43199 101.052 3.2498 101.344 3.11786C101.637 2.98593 101.97 2.91996 102.344 2.91996C102.718 2.91996 103.051 2.98593 103.343 3.11786C103.639 3.2498 103.889 3.43199 104.093 3.66445C104.294 3.8969 104.448 4.17176 104.555 4.48903C104.662 4.80315 104.715 5.14555 104.715 5.51622V5.61517C104.715 5.98898 104.662 6.33295 104.555 6.64708C104.448 6.96121 104.294 7.2345 104.093 7.46695C103.892 7.6994 103.644 7.8816 103.348 8.01353C103.056 8.14546 102.724 8.21143 102.353 8.21143C101.979 8.21143 101.644 8.14546 101.349 8.01353C101.054 7.8816 100.805 7.6994 100.604 7.46695C100.4 7.2345 100.244 6.96121 100.137 6.64708C100.03 6.33295 99.9769 5.98898 99.9769 5.61517V5.51622ZM101.104 5.61517C101.104 5.84448 101.127 6.06123 101.175 6.26541C101.225 6.4696 101.302 6.64865 101.406 6.80257C101.506 6.95649 101.635 7.079 101.792 7.1701C101.949 7.25806 102.136 7.30203 102.353 7.30203C102.564 7.30203 102.748 7.25806 102.905 7.1701C103.062 7.079 103.191 6.95649 103.291 6.80257C103.392 6.64865 103.466 6.4696 103.513 6.26541C103.563 6.06123 103.589 5.84448 103.589 5.61517V5.51622C103.589 5.29319 103.563 5.07959 103.513 4.8754C103.463 4.67122 103.389 4.49217 103.291 4.33825C103.188 4.18433 103.057 4.06182 102.9 3.97072C102.746 3.87962 102.561 3.83407 102.344 3.83407C102.13 3.83407 101.945 3.87962 101.787 3.97072C101.633 4.06182 101.506 4.18433 101.406 4.33825C101.302 4.49217 101.225 4.67122 101.175 4.8754C101.127 5.07959 101.104 5.29319 101.104 5.51622V5.61517Z" fill="white"/>
<path d="M105.791 8.11248V3.0142H106.809L106.88 3.73984C106.949 3.64246 107.024 3.55293 107.106 3.47126C107.191 3.38644 107.28 3.31105 107.375 3.24509C107.526 3.14142 107.691 3.06132 107.87 3.00478C108.049 2.94824 108.238 2.91996 108.436 2.91996C108.696 2.91996 108.935 2.95766 109.152 3.03305C109.369 3.10844 109.555 3.22781 109.709 3.39116C109.863 3.5545 109.982 3.7634 110.067 4.01784C110.152 4.26914 110.194 4.57384 110.194 4.93195V8.11248H109.067V4.95079C109.067 4.74033 109.044 4.56442 108.997 4.42306C108.95 4.2817 108.88 4.16862 108.789 4.0838C108.698 3.99899 108.588 3.93931 108.459 3.90475C108.33 3.86706 108.183 3.84821 108.016 3.84821C107.878 3.84821 107.749 3.86706 107.629 3.90475C107.51 3.93931 107.401 3.98957 107.304 4.05553C107.229 4.10579 107.158 4.16705 107.092 4.2393C107.026 4.31155 106.968 4.39008 106.917 4.47489V8.11248H105.791Z" fill="white"/>
<path d="M111.189 5.51622C111.189 5.14555 111.243 4.80315 111.35 4.48903C111.456 4.17176 111.612 3.8969 111.816 3.66445C112.018 3.43199 112.264 3.2498 112.557 3.11786C112.849 2.98593 113.182 2.91996 113.556 2.91996C113.93 2.91996 114.263 2.98593 114.556 3.11786C114.851 3.2498 115.101 3.43199 115.305 3.66445C115.507 3.8969 115.661 4.17176 115.767 4.48903C115.874 4.80315 115.928 5.14555 115.928 5.51622V5.61517C115.928 5.98898 115.874 6.33295 115.767 6.64708C115.661 6.96121 115.507 7.2345 115.305 7.46695C115.104 7.6994 114.856 7.8816 114.56 8.01353C114.268 8.14546 113.936 8.21143 113.566 8.21143C113.192 8.21143 112.857 8.14546 112.561 8.01353C112.266 7.8816 112.018 7.6994 111.816 7.46695C111.612 7.2345 111.456 6.96121 111.35 6.64708C111.243 6.33295 111.189 5.98898 111.189 5.61517V5.51622ZM112.316 5.61517C112.316 5.84448 112.34 6.06123 112.387 6.26541C112.437 6.4696 112.514 6.64865 112.618 6.80257C112.718 6.95649 112.847 7.079 113.004 7.1701C113.162 7.25806 113.349 7.30203 113.566 7.30203C113.776 7.30203 113.96 7.25806 114.117 7.1701C114.274 7.079 114.403 6.95649 114.504 6.80257C114.604 6.64865 114.678 6.4696 114.725 6.26541C114.776 6.06123 114.801 5.84448 114.801 5.61517V5.51622C114.801 5.29319 114.776 5.07959 114.725 4.8754C114.675 4.67122 114.601 4.49217 114.504 4.33825C114.4 4.18433 114.27 4.06182 114.112 3.97072C113.958 3.87962 113.773 3.83407 113.556 3.83407C113.342 3.83407 113.157 3.87962 113 3.97072C112.846 4.06182 112.718 4.18433 112.618 4.33825C112.514 4.49217 112.437 4.67122 112.387 4.8754C112.34 5.07959 112.316 5.29319 112.316 5.51622V5.61517Z" fill="white"/>
</svg>
