<svg width="40" height="40" viewBox="0 0 40 40" fill="none" xmlns="http://www.w3.org/2000/svg">
<rect width="40" height="40" fill="black"/>
<path d="M12.1528 23.9971L10.5326 21.2807C11.0424 22.251 10.684 23.4492 9.69938 24L8.65176 22.2418C8.99821 22.8626 8.77399 23.6419 8.14002 23.9971L7.50599 22.9315C7.54823 23.0248 7.57167 23.128 7.57167 23.2364C7.57167 23.6565 7.21984 23.9971 6.78584 23.9971C6.35183 23.9971 6 23.6565 6 23.2364C6 22.8163 6.35183 22.4757 6.78584 22.4757C7.04642 22.4757 7.27738 22.5985 7.42035 22.7876L6.79187 21.7313C7.42534 21.3764 8.23226 21.5771 8.61343 22.1775L7.57157 20.429C8.55566 19.8785 9.80495 20.1762 10.4177 21.088L8.78977 18.3587L10.1966 16L14.9568 23.981L14.928 23.9971H12.1528Z" fill="white"/>
<path d="M17.7795 22.6787L17.6293 21.6302H16.6251L16.4749 22.6787H15.6684L16.5698 17.3213H17.7479L18.6492 22.6787H17.7795ZM16.7358 20.9031H17.5186L17.1232 18.2014L16.7358 20.9031Z" fill="white"/>
<path d="M20.3054 22.7553C19.4515 22.7553 18.985 22.2655 18.985 21.4083V18.5917C18.985 17.7345 19.4515 17.2447 20.3054 17.2447C21.1593 17.2447 21.6258 17.7345 21.6258 18.5917V21.4083C21.6258 22.2655 21.1593 22.7553 20.3054 22.7553ZM20.3054 21.9899C20.5821 21.9899 20.7561 21.8445 20.7561 21.4618V18.5382C20.7561 18.1555 20.5821 18.0101 20.3054 18.0101C20.0286 18.0101 19.8547 18.1555 19.8547 18.5382V21.4618C19.8547 21.8445 20.0286 21.9899 20.3054 21.9899Z" fill="white"/>
<path d="M23.4316 22.7553C22.5935 22.7553 22.1507 22.2655 22.1507 21.4389V18.5611C22.1507 17.7345 22.5935 17.2447 23.4316 17.2447C24.2697 17.2447 24.7125 17.7345 24.7125 18.5611V19.1275H23.8902V18.5076C23.8902 18.1555 23.7162 18.0101 23.4553 18.0101C23.1944 18.0101 23.0205 18.1555 23.0205 18.5076V21.5001C23.0205 21.8522 23.1944 21.9899 23.4553 21.9899C23.7162 21.9899 23.8902 21.8522 23.8902 21.5001V20.7194H24.7125V21.4389C24.7125 22.2655 24.2697 22.7553 23.4316 22.7553Z" fill="white"/>
<path d="M27.0992 22.6787L26.949 21.6302H25.9448L25.7946 22.6787H24.9881L25.8895 17.3213H27.0676L27.9689 22.6787H27.0992ZM26.0555 20.9031H26.8383L26.4429 18.2014L26.0555 20.9031Z" fill="white"/>
<path d="M30.2958 22.6787L30.1456 21.6302H29.1415L28.9912 22.6787H28.1848L29.0861 17.3213H30.2642L31.1656 22.6787H30.2958ZM29.2522 20.9031H30.0349L29.6396 18.2014L29.2522 20.9031Z" fill="white"/>
<path d="M32.6875 22.7553C31.8336 22.7553 31.4066 22.2655 31.4066 21.4083V21.1021H32.2289V21.4695C32.2289 21.8522 32.4028 21.9899 32.6796 21.9899C32.9563 21.9899 33.1382 21.8522 33.1382 21.4542C33.1382 21.0103 32.9484 20.7347 32.3791 20.2526C31.6517 19.6326 31.4066 19.1887 31.4066 18.5764C31.4066 17.7345 31.8573 17.2447 32.7033 17.2447C33.5493 17.2447 33.9684 17.7345 33.9684 18.5917V18.8137H33.1461V18.5382C33.1461 18.1555 32.9879 18.0101 32.7112 18.0101C32.4345 18.0101 32.2684 18.1555 32.2684 18.5229C32.2684 18.9132 32.4661 19.1887 33.0354 19.6709C33.7628 20.2908 34 20.7271 34 21.3929C34 22.2655 33.5414 22.7553 32.6875 22.7553Z" fill="white"/>
</svg>
