<svg width="40" height="40" viewBox="0 0 40 40" fill="none" xmlns="http://www.w3.org/2000/svg">
<rect width="40" height="40" fill="#232323"/>
<path d="M6 19.4118C6 18.6321 6.61643 18 7.37683 18H13.4808C13.4808 18.7797 12.8644 19.4118 12.104 19.4118H6Z" fill="white"/>
<path d="M6 22C6 21.2203 6.61643 20.5882 7.37683 20.5882H13.4808C13.4808 21.3679 12.8644 22 12.104 22H6Z" fill="white"/>
<path d="M15.7457 19.8085C15.827 20.109 16.0476 20.2592 16.4074 20.2592C16.639 20.2592 16.8142 20.1793 16.9331 20.0195L17.4212 20.3072C17.1896 20.6492 16.8486 20.8202 16.3981 20.8202C16.0101 20.8202 15.6988 20.7003 15.4641 20.4606C15.2294 20.2209 15.1121 19.9188 15.1121 19.5544C15.1121 19.1931 15.2279 18.8927 15.4594 18.6529C15.6909 18.41 15.9882 18.2885 16.3511 18.2885C16.6953 18.2885 16.9785 18.41 17.2006 18.6529C17.4259 18.8959 17.5385 19.1963 17.5385 19.5544C17.5385 19.6343 17.5307 19.719 17.515 19.8085H15.7457ZM15.7363 19.329H16.9331C16.8987 19.166 16.8267 19.0445 16.7172 18.9646C16.6108 18.8847 16.4888 18.8447 16.3511 18.8447C16.1884 18.8447 16.0539 18.8879 15.9475 18.9742C15.8411 19.0573 15.7707 19.1756 15.7363 19.329Z" fill="white"/>
<path d="M18.428 19.0365C18.428 19.1004 18.4687 19.1532 18.55 19.1947C18.6345 19.2331 18.7362 19.2683 18.8551 19.3002C18.974 19.329 19.0929 19.3674 19.2118 19.4153C19.3307 19.4601 19.4308 19.5368 19.5121 19.6455C19.5966 19.7541 19.6388 19.89 19.6388 20.053C19.6388 20.2992 19.5481 20.4894 19.3666 20.6236C19.1883 20.7547 18.9646 20.8202 18.6955 20.8202C18.2137 20.8202 17.8851 20.63 17.7099 20.2496L18.2356 19.9475C18.3044 20.1553 18.4577 20.2592 18.6955 20.2592C18.9114 20.2592 19.0193 20.1905 19.0193 20.053C19.0193 19.9891 18.9771 19.938 18.8926 19.8996C18.8113 19.858 18.7111 19.8213 18.5923 19.7893C18.4734 19.7573 18.3545 19.7174 18.2356 19.6694C18.1167 19.6215 18.015 19.5464 17.9305 19.4441C17.8492 19.3386 17.8085 19.2075 17.8085 19.0509C17.8085 18.8143 17.893 18.6289 18.0619 18.4947C18.234 18.3572 18.4468 18.2885 18.7002 18.2885C18.8911 18.2885 19.0647 18.3333 19.2211 18.4228C19.3776 18.5091 19.5012 18.6337 19.5919 18.7968L19.0757 19.0845C19.0006 18.9214 18.8754 18.8399 18.7002 18.8399C18.622 18.8399 18.5563 18.8575 18.5031 18.8927C18.453 18.9278 18.428 18.9758 18.428 19.0365Z" fill="white"/>
<path d="M20.5077 19.8085C20.589 20.109 20.8096 20.2592 21.1694 20.2592C21.401 20.2592 21.5762 20.1793 21.6951 20.0195L22.1832 20.3072C21.9516 20.6492 21.6106 20.8202 21.16 20.8202C20.7721 20.8202 20.4607 20.7003 20.2261 20.4606C19.9914 20.2209 19.8741 19.9188 19.8741 19.5544C19.8741 19.1931 19.9899 18.8927 20.2214 18.6529C20.4529 18.41 20.7502 18.2885 21.1131 18.2885C21.4573 18.2885 21.7404 18.41 21.9626 18.6529C22.1878 18.8959 22.3005 19.1963 22.3005 19.5544C22.3005 19.6343 22.2927 19.719 22.277 19.8085H20.5077ZM20.4983 19.329H21.6951C21.6606 19.166 21.5887 19.0445 21.4792 18.9646C21.3728 18.8847 21.2508 18.8447 21.1131 18.8447C20.9504 18.8447 20.8159 18.8879 20.7095 18.9742C20.6031 19.0573 20.5327 19.1756 20.4983 19.329Z" fill="white"/>
<path d="M24.0279 18.2885C24.2844 18.2885 24.4956 18.3764 24.6614 18.5522C24.8304 18.728 24.9149 18.971 24.9149 19.2811V20.7531H24.3094V19.3578C24.3094 19.1979 24.2672 19.0765 24.1827 18.9934C24.0982 18.907 23.9856 18.8639 23.8448 18.8639C23.6884 18.8639 23.5632 18.9134 23.4694 19.0125C23.3755 19.1116 23.3286 19.2603 23.3286 19.4585V20.7531H22.7231V18.3556H23.3286V18.6241C23.4756 18.4004 23.7087 18.2885 24.0279 18.2885Z" fill="white"/>
<path d="M28.0329 18.3556H28.6758L27.9296 20.7531H27.3523L26.9206 19.3002L26.4888 20.7531H25.9115L25.1653 18.3556H25.8083L26.2072 19.8277L26.6343 18.3556H27.2069L27.6339 19.8325L28.0329 18.3556Z" fill="white"/>
<path d="M33.3523 18.3556H34L33.1458 20.7531C33.0238 21.0983 32.8611 21.3477 32.6577 21.5011C32.4575 21.6577 32.2072 21.728 31.9068 21.7121V21.1367C32.0695 21.1399 32.1978 21.1047 32.2917 21.0312C32.3887 20.9577 32.4653 20.8394 32.5216 20.6764L31.5595 18.3556H32.2213L32.8314 19.9667L33.3523 18.3556Z" fill="white"/>
<path d="M31.2657 20.5546C31.2663 20.3717 31.2615 20.161 31.2607 19.9781C31.2321 20.0061 30.7813 20.6079 30.7834 20.619C30.8094 20.7544 30.9467 20.8433 31.0776 20.8095C31.1937 20.7795 31.2652 20.6835 31.2657 20.5546Z" fill="white"/>
<path d="M31.2657 20.5727C31.2663 20.3897 30.8955 20.2667 30.8947 20.0838C30.8661 20.1118 30.7359 20.3894 30.7834 20.637C30.8094 20.7725 30.9467 20.8614 31.0776 20.8276C31.1937 20.7976 31.2652 20.7016 31.2657 20.5727Z" fill="white"/>
<path d="M30.0429 18.2857C29.9612 18.2857 29.8786 18.2938 29.7959 18.3108C29.1246 18.4484 28.6848 19.1115 28.8154 19.7891C28.8896 20.1737 29.13 20.4963 29.4751 20.6742C29.8196 20.8517 30.2187 20.8593 30.5702 20.6951C30.6174 20.6731 30.6628 20.6468 30.711 20.6191C30.7333 20.6063 30.7564 20.593 30.7797 20.5801L30.8609 20.5352L30.8832 20.6338C30.8852 20.6424 30.8874 20.6519 30.8892 20.6615C30.8987 20.7104 30.9293 20.7546 30.9731 20.7825C31.0168 20.8105 31.042 20.7953 31.0902 20.7831C31.1839 20.7592 31.1387 20.6388 31.1391 20.5352C31.1397 20.3413 31.2663 20.2183 31.2655 20.0287C31.2655 20.006 31.2627 19.984 31.2576 19.9648C31.2364 19.8865 31.1815 19.8363 31.0848 19.8068C30.9932 19.779 30.8937 19.7842 30.7619 19.8238C30.6585 19.855 30.5643 19.9134 30.4564 20.0133C30.3165 20.1431 30.1418 20.1961 29.951 20.1665C29.7875 20.1412 29.6443 20.0554 29.548 19.9249C29.4522 19.795 29.4106 19.6319 29.4308 19.4655C29.4518 19.2936 29.5469 19.1371 29.692 19.0362C29.8383 18.9345 30.0189 18.9002 30.1879 18.942C30.2973 18.9691 30.3956 19.026 30.4973 19.1211C30.7018 19.3125 31.0069 19.3626 31.2623 19.2488C31.1251 18.6783 30.6091 18.2857 30.0429 18.2857Z" fill="white"/>
<path d="M31.2657 20.5546C31.2663 20.3717 31.2615 20.161 31.2607 19.9781C31.2321 20.0061 30.7813 20.6079 30.7834 20.619C30.8094 20.7544 30.9467 20.8433 31.0776 20.8095C31.1937 20.7795 31.2652 20.6835 31.2657 20.5546Z" fill="white"/>
<path d="M31.2657 20.5727C31.2663 20.3897 31.2662 20.2068 31.2654 20.0239C31.2369 20.0519 30.7359 20.3894 30.7834 20.637C30.8094 20.7725 30.9467 20.8614 31.0776 20.8276C31.1937 20.7976 31.2652 20.7016 31.2657 20.5727Z" fill="white"/>
</svg>
