<svg width="40" height="40" viewBox="0 0 40 40" fill="none" xmlns="http://www.w3.org/2000/svg">
<rect width="40" height="40" fill="#FC575E"/>
<path d="M13.4673 30.6699L18.5801 11.2587C18.8322 10.3017 18.2739 9.318 17.3332 9.06157C16.3924 8.80514 15.4255 9.37307 15.1734 10.3301L10.0605 29.7413C9.80845 30.6983 10.3667 31.682 11.3075 31.9384C12.2482 32.1949 13.2152 31.6269 13.4673 30.6699Z" fill="white"/>
<path d="M24.8266 30.6699L29.9395 11.2587C30.1915 10.3017 29.6333 9.318 28.6925 9.06157C27.7518 8.80514 26.7848 9.37307 26.5327 10.3301L21.4199 29.7413C21.1678 30.6983 21.7261 31.682 22.6668 31.9384C23.6076 32.1949 24.5745 31.6269 24.8266 30.6699Z" fill="white"/>
<path d="M15.7795 17.7212H26.3626C27.3366 17.7212 28.1261 16.918 28.1261 15.9273C28.1261 14.9365 27.3366 14.1333 26.3626 14.1333H15.7795C14.8056 14.1333 14.016 14.9365 14.016 15.9273C14.016 16.918 14.8056 17.7212 15.7795 17.7212Z" fill="white"/>
<path d="M13.6031 26.8012H24.1863C25.1602 26.8012 25.9497 25.9981 25.9497 25.0073C25.9497 24.0165 25.1602 23.2134 24.1863 23.2134H13.6031C12.6292 23.2134 11.8397 24.0165 11.8397 25.0073C11.8397 25.9981 12.6292 26.8012 13.6031 26.8012Z" fill="white"/>
</svg>
