<svg width="40" height="40" viewBox="0 0 40 40" fill="none" xmlns="http://www.w3.org/2000/svg">
<rect width="40" height="40" fill="#19335E"/>
<path d="M8.32594 19.2534C7.72232 19.2534 7.1509 19.7048 7.1509 20.551C7.1509 21.3973 7.72232 21.8809 8.32594 21.8809C8.94566 21.8809 9.50901 21.4135 9.50901 20.5672C9.50901 19.7209 8.94566 19.2534 8.32594 19.2534ZM8.0362 18.2621C8.73638 18.2621 9.24344 18.5845 9.50901 18.9713V18.3346H10.6438V22.832C10.6438 24.0409 9.90339 25 8.4386 25C7.1831 25 6.30584 24.3714 6.19317 23.3478H7.31188C7.42454 23.7508 7.84306 24.0167 8.40641 24.0167C9.02612 24.0167 9.50901 23.6621 9.50901 22.832V22.1388C9.24344 22.5257 8.73638 22.8723 8.0362 22.8723C6.90139 22.8723 6 21.9454 6 20.551C6 19.1567 6.90139 18.2621 8.0362 18.2621Z" fill="white"/>
<path d="M12.8729 22.7997H11.7461V18.3346H12.8729V19.0278C13.1546 18.5683 13.6214 18.2701 14.2411 18.2701V19.4549H13.9433C13.2753 19.4549 12.8729 19.7128 12.8729 20.5752V22.7997Z" fill="white"/>
<path d="M19.6328 18.3346H20.7756L21.5643 21.7358L22.4174 18.3346H23.6086L24.4456 21.7278L25.2343 18.3346H26.3127L25.0089 22.7997H23.7937L22.9809 19.6806L22.168 22.7997H20.9446L19.6328 18.3346Z" fill="white"/>
<path d="M26.8051 17.7276L27.9399 17.2305V18.3347H28.9379V19.2615H27.9399V21.4215C27.9399 21.7197 28.0605 21.8487 28.4147 21.8487H28.9379V22.7997H28.2295C27.3764 22.7997 26.8051 22.437 26.8051 21.4135V17.7276Z" fill="white"/>
<path d="M29.7504 16.8355H30.8773V18.8908C31.1671 18.5119 31.6661 18.2701 32.2616 18.2701C33.2675 18.2701 34 18.9472 34 20.1803V22.7997H32.8733V20.3334C32.8733 19.6161 32.4789 19.2292 31.8832 19.2292C31.2717 19.2292 30.8773 19.6161 30.8773 20.3334V22.7997H29.7504V16.8355Z" fill="white"/>
<path d="M17.0015 21.8811C16.259 21.8811 15.6577 21.2782 15.6577 20.5347C15.6577 20.1633 15.808 19.8267 16.0512 19.5831C16.247 19.3871 16.5029 19.2515 16.7887 19.206V18.2722C15.635 18.3794 14.7316 19.3516 14.7316 20.5347C14.7316 21.7902 15.7477 22.8079 17.0015 22.8079C17.6283 22.8079 18.1956 22.5536 18.6062 22.1418C18.97 21.7775 19.2103 21.2903 19.2607 20.7478H18.3282C18.2261 21.3904 17.6716 21.8811 17.0015 21.8811Z" fill="white"/>
<path d="M6.80602 15.0317V17.1597H7.63414V17.4844H6.4043V15.0317H6.80602Z" fill="white"/>
<path d="M11.1544 15.3564H10.2029V16.0763H11.0486V16.4045H10.2029V17.1562H11.1544V17.4844H9.80119V15.0282H11.1544V15.3564Z" fill="white"/>
<path d="M15.7352 15.7375H15.2524C15.1221 15.4905 14.8895 15.367 14.597 15.367C14.1107 15.367 13.7584 15.7128 13.7584 16.2528C13.7584 16.7927 14.1107 17.142 14.597 17.142C15.041 17.142 15.3194 16.8739 15.3793 16.461H14.4596V16.1398H15.8092V16.4539C15.7352 17.0221 15.256 17.5055 14.597 17.5055C13.9064 17.5055 13.3461 16.9903 13.3461 16.2528C13.3461 15.5188 13.9064 15 14.597 15C15.108 15 15.5485 15.2576 15.7352 15.7375Z" fill="white"/>
<path d="M19.0017 15.5152L18.6 16.6551H19.3999L19.0017 15.5152ZM19.5127 16.9833H18.4872L18.3111 17.4844H17.8917L18.7691 15.0282H19.2343L20.1117 17.4844H19.6889L19.5127 16.9833Z" fill="white"/>
<path d="M22.7264 15.0317V17.1597H23.5544V17.4844H22.3246V15.0317H22.7264Z" fill="white"/>
<path d="M17.2142 18.2623V19.189H18.3452V20.3217H19.2706V18.2623H17.2142Z" fill="white"/>
</svg>
