<svg width="40" height="40" viewBox="0 0 40 40" fill="none" xmlns="http://www.w3.org/2000/svg">
<rect width="40" height="40" fill="black"/>
<path d="M8.27621 23C7.68726 23 7.19912 22.8712 6.81179 22.6137C6.42447 22.3562 6.15387 22.0082 6 21.5699L7.21769 20.8384C7.42462 21.3479 7.79072 21.6027 8.316 21.6027C8.75108 21.6027 8.96862 21.474 8.96862 21.2164C8.96862 21.0466 8.84393 20.9096 8.59456 20.8055C8.48844 20.7616 8.25498 20.6877 7.89419 20.5836C7.38483 20.4301 6.98158 20.2164 6.68445 19.9425C6.38733 19.663 6.23876 19.2767 6.23876 18.7836C6.23876 18.2521 6.42181 17.8219 6.78792 17.4932C7.15933 17.1644 7.62094 17 8.17274 17C8.63966 17 9.05351 17.1123 9.41431 17.337C9.77511 17.5616 10.051 17.8877 10.242 18.3151L9.04821 19.0384C8.87312 18.611 8.58395 18.3973 8.1807 18.3973C8.01092 18.3973 7.88092 18.4329 7.79072 18.5041C7.70583 18.5753 7.66338 18.6658 7.66338 18.7753C7.66338 18.9014 7.72705 19.0082 7.85439 19.0959C7.98704 19.1836 8.24172 19.2849 8.61843 19.4C8.88903 19.4822 9.10657 19.5589 9.27105 19.6301C9.43553 19.7014 9.61593 19.8055 9.81225 19.9425C10.0086 20.074 10.1545 20.2466 10.25 20.4603C10.3455 20.6685 10.3932 20.9151 10.3932 21.2C10.3932 21.7644 10.1996 22.2055 9.81225 22.5233C9.42492 22.8411 8.91291 23 8.27621 23Z" fill="white"/>
<path d="M13.5217 23C12.6833 23 11.9883 22.7151 11.4365 22.1452C10.89 21.5699 10.6167 20.8548 10.6167 20C10.6167 19.1452 10.89 18.4329 11.4365 17.863C11.9883 17.2877 12.6833 17 13.5217 17C14.0257 17 14.4926 17.1233 14.9224 17.3699C15.3522 17.6164 15.6891 17.9479 15.9332 18.3644L14.6996 19.0959C14.5934 18.8932 14.4343 18.7342 14.222 18.6192C14.0151 18.4986 13.7816 18.4384 13.5217 18.4384C13.076 18.4384 12.7152 18.5836 12.4393 18.874C12.1687 19.1589 12.0334 19.5342 12.0334 20C12.0334 20.4658 12.1687 20.8438 12.4393 21.1342C12.7152 21.4192 13.076 21.5616 13.5217 21.5616C13.7816 21.5616 14.0151 21.5041 14.222 21.389C14.4343 21.2685 14.5934 21.1041 14.6996 20.8959L15.9332 21.6356C15.6891 22.0575 15.3522 22.3918 14.9224 22.6384C14.4979 22.8795 14.031 23 13.5217 23Z" fill="white"/>
<path d="M20.9826 17.1233L19.1044 20.6658V22.8767H17.6797V20.6822L15.8015 17.1233H17.4012L18.3881 19.2521L19.3829 17.1233H20.9826Z" fill="white"/>
<path d="M22.7683 21.4548H24.6864V22.8767H21.3437V17.1233H22.7683V21.4548Z" fill="white"/>
<path d="M26.5515 21.4548H28.4696V22.8767H25.1269V17.1233H26.5515V21.4548Z" fill="white"/>
<path d="M32.464 22.8767L32.2252 22.0466H30.3708L30.132 22.8767H28.588L30.4265 17.1233H32.1615L34 22.8767H32.464ZM30.7369 20.7808H31.8591L31.294 18.8247L30.7369 20.7808Z" fill="white"/>
</svg>
