<svg width="40" height="40" viewBox="0 0 40 40" fill="none" xmlns="http://www.w3.org/2000/svg">
<rect width="40" height="40" fill="#5CB950"/>
<path d="M20.4488 10.079C19.0197 10.2622 17.7773 10.6444 16.3888 11.3292C15.2845 11.8706 14.7486 12.213 13.8229 12.9854C11.9553 14.5381 10.3151 16.6483 9.28384 18.8062C9.09708 19.1884 8.91844 19.5786 8.86972 19.6662C8.39064 20.6774 7.81413 23.1299 8.05773 23.1299C8.09833 23.1299 8.38252 22.9388 8.68296 22.7079C9.90907 21.7683 11.1677 21.1631 12.678 20.773C13.7742 20.4943 14.8866 20.3509 16.738 20.2634C19.0359 20.1439 20.3594 20.0404 21.7886 19.8573C23.2258 19.6741 25.6374 19.2202 26.4169 18.9734C27.2208 18.7265 28.4794 18.0816 29.2995 17.5082C30.1602 16.8951 31.5 15.6927 31.8248 15.2309C32.0359 14.9363 32.0441 14.9044 31.9141 14.8089C31.8411 14.7611 31.3295 14.6735 30.7855 14.6178C30.2333 14.57 29.4051 14.4824 28.9341 14.4346C27.6755 14.3072 23.4856 14.3072 22.357 14.4426C20.1077 14.7054 19.2876 14.8646 17.9397 15.3185L17.0059 15.629L17.1845 15.4061C17.7935 14.6656 19.3769 13.9091 21.1796 13.495C23.1771 13.0332 26.0759 12.85 28.8042 13.0093C29.7461 13.0571 30.6312 13.1208 30.7611 13.1526L31.0047 13.2004L30.7205 12.8978C30.144 12.3006 29.1615 11.7193 27.4319 10.9788C27.1152 10.8434 26.0353 10.509 25.3857 10.3497C24.0784 10.0312 21.7886 9.90383 20.4488 10.079Z" fill="white"/>
<path d="M19.5512 30.921C20.9803 30.7378 22.2227 30.3556 23.6112 29.6708C24.7155 29.1294 25.2514 28.787 26.1771 28.0146C28.0447 26.4619 29.6849 24.3517 30.7162 22.1938C30.9029 21.8116 31.0816 21.4214 31.1303 21.3338C31.6094 20.3226 32.1859 17.8701 31.9423 17.8701C31.9017 17.8701 31.6175 18.0612 31.317 18.2921C30.0909 19.2317 28.8323 19.8369 27.322 20.227C26.2258 20.5057 25.1134 20.6491 23.2621 20.7366C20.9641 20.8561 19.6406 20.9596 18.2114 21.1427C16.7742 21.3259 14.3626 21.7798 13.5831 22.0266C12.7792 22.2735 11.5206 22.9184 10.7005 23.4918C9.83977 24.1049 8.49998 25.3073 8.17518 25.7691C7.96407 26.0637 7.95594 26.0956 8.08586 26.1911C8.15894 26.2389 8.6705 26.3265 9.21453 26.3822C9.76669 26.43 10.5949 26.5176 11.0659 26.5654C12.3245 26.6928 16.5144 26.6928 17.643 26.5574C19.8923 26.2946 20.7124 26.1354 22.0603 25.6815L22.9941 25.371L22.8155 25.5939C22.2065 26.3345 20.6231 27.0909 18.8204 27.505C16.8229 27.9668 13.9241 28.15 11.1958 27.9907C10.2539 27.9429 9.36882 27.8792 9.2389 27.8474L8.9953 27.7996L9.2795 28.1022C9.85601 28.6994 10.8385 29.2807 12.5681 30.0212C12.8848 30.1566 13.9647 30.491 14.6143 30.6503C15.9216 30.9688 18.2114 31.0962 19.5512 30.921Z" fill="white"/>
</svg>
