<svg width="40" height="40" viewBox="0 0 40 40" fill="none" xmlns="http://www.w3.org/2000/svg">
<rect width="40" height="40" fill="#2B3260"/>
<path d="M12.0244 20.6271L24.3495 13.5112L22.8993 12.6741L12.0244 18.9527V20.6271Z" fill="white"/>
<path d="M21.4492 11.8368L19.9999 11L12.0245 15.6047V17.2782L21.4492 11.8368Z" fill="white"/>
<path d="M21.4492 18.5345L22.8994 17.6972L27.9754 20.628V18.9535L24.3494 16.8601L25.7996 16.0227L27.9754 17.2791V15.6046L25.7996 14.3485L12.0245 22.3015V24.814L13.4745 25.6513V23.1386L14.9245 22.3015V26.4884L16.3747 27.3256V21.4642L17.8247 20.6271V28.1629L19.2749 29V19.7899L19.9991 19.3718L20.725 19.7908V29L22.175 28.1629V20.628L23.6252 21.4651V27.3256L25.0752 26.4884V22.3024L26.5252 23.1395V25.6513L27.9754 24.814V22.3024L21.4492 18.5345Z" fill="white"/>
</svg>
