<svg width="14" height="15" viewBox="0 0 14 15" fill="none" xmlns="http://www.w3.org/2000/svg">
<path d="M12.8574 7.53194L8.41304 11.9763C8.29952 12.0834 8.14877 12.142 7.99276 12.1398C7.83674 12.1375 7.68774 12.0746 7.57735 11.9643C7.46697 11.854 7.40388 11.7051 7.40147 11.5491C7.39905 11.3931 7.45751 11.2423 7.56444 11.1286L10.9344 7.75864H1.61134C1.43884 7.75864 1.27341 7.69012 1.15144 7.56814C1.02946 7.44617 0.960938 7.28074 0.960938 7.10824C0.960938 6.93574 1.02946 6.77031 1.15144 6.64834C1.27341 6.52636 1.43884 6.45784 1.61134 6.45784H10.9345L7.56454 3.08784C7.45761 2.97421 7.39915 2.8234 7.40157 2.66739C7.40398 2.51138 7.46707 2.36244 7.57745 2.25217C7.68784 2.1419 7.83684 2.07897 7.99286 2.07672C8.14887 2.07448 8.29962 2.13309 8.41314 2.24014L12.8575 6.68454C12.9132 6.74017 12.9574 6.80622 12.9875 6.87893C13.0176 6.95163 13.0331 7.02956 13.0331 7.10826C13.0331 7.18696 13.0176 7.26489 12.9874 7.33759C12.9573 7.41028 12.9131 7.47633 12.8574 7.53194Z" fill="white"/>
</svg>
