<svg width="24" height="24" viewBox="0 0 24 24" fill="none" xmlns="http://www.w3.org/2000/svg">
<path d="M18.8773 12.5374L11.5153 18.4625L4.16705 12.3179C4.02843 12.2027 3.86846 12.1158 3.69629 12.0624C3.52413 12.009 3.34313 11.99 3.16363 12.0066C2.98413 12.0231 2.80965 12.0749 2.65015 12.1589C2.49065 12.2429 2.34925 12.3576 2.23403 12.4962C2.1188 12.6349 2.03201 12.795 1.97861 12.9672C1.92521 13.1395 1.90624 13.3205 1.92279 13.5001C1.93934 13.6797 1.99109 13.8543 2.07507 14.0138C2.15905 14.1734 2.27362 14.3149 2.41225 14.4301L10.6379 21.2879C10.8832 21.4896 11.1909 21.5999 11.5084 21.5999C11.826 21.5999 12.1337 21.4896 12.379 21.2879L20.6046 14.6633C20.7455 14.5501 20.8626 14.4102 20.9492 14.2516C21.0358 14.093 21.0902 13.9188 21.1093 13.7391C21.1284 13.5594 21.1118 13.3777 21.0605 13.2044C21.0092 13.0311 20.9242 12.8697 20.8103 12.7294C20.6962 12.5895 20.5556 12.4736 20.3965 12.3882C20.2375 12.3028 20.0632 12.2496 19.8836 12.2318C19.704 12.2139 19.5227 12.2318 19.35 12.2842C19.1773 12.3366 19.0166 12.4227 18.8773 12.5374Z" fill="white"/>
<path d="M10.6379 11.687C10.8832 11.8888 11.1909 11.999 11.5084 11.999C11.826 11.999 12.1337 11.8888 12.379 11.687L20.6046 5.06243C20.7455 4.94925 20.8626 4.80933 20.9492 4.65073C21.0358 4.49213 21.0902 4.31797 21.1093 4.13825C21.1284 3.95854 21.1118 3.77682 21.0605 3.60354C21.0092 3.43026 20.9242 3.26884 20.8103 3.12854C20.6971 2.98765 20.5573 2.87051 20.3988 2.78386C20.2402 2.69722 20.0661 2.64277 19.8865 2.62365C19.7069 2.60453 19.5252 2.62112 19.352 2.67246C19.1788 2.7238 19.0175 2.80888 18.8773 2.92281L11.5153 8.86163L4.16705 2.71708C3.88708 2.48427 3.52614 2.37227 3.16363 2.40571C2.80112 2.43914 2.46673 2.61528 2.23403 2.89538C2.00132 3.17547 1.88937 3.53658 1.92279 3.89925C1.95622 4.26192 2.13228 4.59646 2.41225 4.82927L10.6379 11.687Z" fill="white"/>
</svg>
