<svg width="32" height="17" viewBox="0 0 32 17" fill="none" xmlns="http://www.w3.org/2000/svg">
<g clip-path="url(#clip0_1869_1735)">
<path d="M32 0.773438H0V16.7734H32V0.773438Z" fill="#0038A8"/>
<path d="M32 8.77344H0V16.7734H32V8.77344Z" fill="#CE1126"/>
<path d="M13.8564 8.77344L0 16.7734V0.773438" fill="white"/>
<path d="M4.97793 10.3738C5.86159 10.3738 6.57793 9.65748 6.57793 8.77383C6.57793 7.89017 5.86159 7.17383 4.97793 7.17383C4.09427 7.17383 3.37793 7.89017 3.37793 8.77383C3.37793 9.65748 4.09427 10.3738 4.97793 10.3738Z" fill="#FCD116"/>
<path d="M1.59961 8.77418L1.80738 8.98195L4.97739 8.77418L1.80738 8.56641L1.59961 8.77418Z" fill="#FCD116"/>
<path d="M1.95508 9.17132L2.12463 9.34087L4.9773 8.77344L1.95508 9.17132Z" fill="#FCD116"/>
<path d="M1.95508 8.37555L2.12463 8.20601L4.9773 8.77344L1.95508 8.37555Z" fill="#FCD116"/>
<path d="M2.58941 6.3852L2.58941 6.67903L4.97786 8.77365L2.88325 6.3852L2.58941 6.3852Z" fill="#FCD116"/>
<path d="M2.55947 6.91806L2.55947 7.15784L4.97785 8.77375L2.55947 6.91806Z" fill="#FCD116"/>
<path d="M3.12217 6.35537L3.36194 6.35537L4.97785 8.77375L3.12217 6.35537Z" fill="#FCD116"/>
<path d="M4.97777 5.39648L4.77 5.60426L4.97777 8.77426L5.18555 5.60426L4.97777 5.39648Z" fill="#FCD116"/>
<path d="M4.57966 5.75195L4.41011 5.9215L4.97754 8.77418L4.57966 5.75195Z" fill="#FCD116"/>
<path d="M5.37542 5.75195L5.54497 5.9215L4.97754 8.77418L5.37542 5.75195Z" fill="#FCD116"/>
<path d="M7.36578 6.38433L7.07194 6.38433L4.97733 8.77278L7.36578 6.67817L7.36578 6.38433Z" fill="#FCD116"/>
<path d="M6.83389 6.35537L6.59411 6.35537L4.9782 8.77375L6.83389 6.35537Z" fill="#FCD116"/>
<path d="M7.39658 6.91806L7.39658 7.15784L4.9782 8.77375L7.39658 6.91806Z" fill="#FCD116"/>
<path d="M8.35547 8.7727L8.1477 8.56492L4.97769 8.7727L8.1477 8.98047L8.35547 8.7727Z" fill="#FCD116"/>
<path d="M8 8.37555L7.83045 8.20601L4.97778 8.77344L8 8.37555Z" fill="#FCD116"/>
<path d="M8 9.17132L7.83045 9.34087L4.97778 8.77344L8 9.17132Z" fill="#FCD116"/>
<path d="M7.36664 11.1617L7.36664 10.8678L4.97819 8.77323L7.07281 11.1617L7.36664 11.1617Z" fill="#FCD116"/>
<path d="M7.39658 10.6288L7.39658 10.389L4.9782 8.77312L7.39658 10.6288Z" fill="#FCD116"/>
<path d="M6.83389 11.1915L6.59411 11.1915L4.9782 8.77312L6.83389 11.1915Z" fill="#FCD116"/>
<path d="M4.9773 12.1504L5.18508 11.9426L4.9773 8.77261L4.76953 11.9426L4.9773 12.1504Z" fill="#FCD116"/>
<path d="M5.37542 11.7949L5.54497 11.6254L4.97754 8.7727L5.37542 11.7949Z" fill="#FCD116"/>
<path d="M4.57966 11.7949L4.41011 11.6254L4.97754 8.7727L4.57966 11.7949Z" fill="#FCD116"/>
<path d="M2.5893 11.1625L2.88314 11.1625L4.97775 8.77409L2.5893 10.8687L2.5893 11.1625Z" fill="#FCD116"/>
<path d="M3.12217 11.1915L3.36194 11.1915L4.97785 8.77312L3.12217 11.1915Z" fill="#FCD116"/>
<path d="M2.55947 10.6288L2.55947 10.389L4.97785 8.77312L2.55947 10.6288Z" fill="#FCD116"/>
<path d="M12.2565 8.77344L11.6552 8.98243L11.6422 9.61882L11.2577 9.11159L10.6484 9.29591L11.012 8.77344H12.2565Z" fill="#FCD116"/>
<path d="M12.2565 8.77344L11.6552 8.56445L11.6422 7.92805L11.2577 8.43528L10.6484 8.25096L11.012 8.77344H12.2565Z" fill="#FCD116"/>
<path d="M0.800485 15.3887L0.920113 14.7635L0.375464 14.4341L1.00702 14.3546L1.15201 13.7349L1.42271 14.311L0.800485 15.3887Z" fill="#FCD116"/>
<path d="M0.800485 15.3887L1.28209 14.9725L1.83971 15.2794L1.59271 14.6928L2.05697 14.2573L1.42271 14.311L0.800485 15.3887Z" fill="#FCD116"/>
<path d="M0.800485 2.1582L1.28209 2.57439L1.83971 2.26743L1.59271 2.85408L2.05697 3.28954L1.42271 3.23592L0.800485 2.1582Z" fill="#FCD116"/>
<path d="M0.800485 2.1582L0.920113 2.78338L0.375464 3.11281L1.00702 3.19223L1.15201 3.81202L1.42271 3.23592L0.800485 2.1582Z" fill="#FCD116"/>
</g>
<defs>
<clipPath id="clip0_1869_1735">
<rect width="32" height="16" fill="white" transform="translate(0 0.773438)"/>
</clipPath>
</defs>
</svg>
