<svg width="40" height="40" viewBox="0 0 40 40" fill="none" xmlns="http://www.w3.org/2000/svg">
<path d="M33.3008 4.98507C33.2387 4.98703 33.1767 4.99247 33.1152 5.00135H25C24.7791 4.99822 24.5599 5.03902 24.3549 5.12138C24.15 5.20374 23.9634 5.326 23.8062 5.48108C23.6489 5.63615 23.524 5.82094 23.4387 6.0247C23.3535 6.22846 23.3096 6.44714 23.3096 6.66801C23.3096 6.88889 23.3535 7.10756 23.4387 7.31132C23.524 7.51508 23.6489 7.69987 23.8062 7.85495C23.9634 8.01002 24.15 8.13229 24.3549 8.21464C24.5599 8.297 24.7791 8.3378 25 8.33468H29.3099L16.8674 20.4636C16.7075 20.6171 16.5798 20.8011 16.4918 21.0046C16.4038 21.2082 16.3573 21.4272 16.3551 21.649C16.3528 21.8707 16.3948 22.0907 16.4787 22.2959C16.5625 22.5012 16.6864 22.6877 16.8432 22.8445C17 23.0013 17.1865 23.1253 17.3918 23.2091C17.5971 23.2929 17.8171 23.3349 18.0388 23.3327C18.2605 23.3304 18.4796 23.2839 18.6831 23.196C18.8867 23.108 19.0706 22.9803 19.2242 22.8203L31.6667 10.6915V15.0013C31.6635 15.2222 31.7043 15.4415 31.7867 15.6464C31.8691 15.8514 31.9913 16.0379 32.1464 16.1952C32.3015 16.3525 32.4863 16.4774 32.69 16.5626C32.8938 16.6479 33.1125 16.6918 33.3333 16.6918C33.5542 16.6918 33.7729 16.6479 33.9766 16.5626C34.1804 16.4774 34.3652 16.3525 34.5203 16.1952C34.6753 16.0379 34.7976 15.8514 34.88 15.6464C34.9623 15.4415 35.0031 15.2222 35 15.0013V6.8796C35.0332 6.63964 35.0137 6.39533 34.9428 6.16368C34.872 5.93203 34.7515 5.71861 34.5897 5.53828C34.428 5.35794 34.2289 5.21503 34.0063 5.11949C33.7837 5.02395 33.5429 4.97808 33.3008 4.98507ZM8.33333 5.00135C6.51156 5.00135 5 6.51291 5 8.33468V31.668C5 33.4898 6.51156 35.0013 8.33333 35.0013H31.6667C33.4884 35.0013 35 33.4898 35 31.668V21.668C35.0031 21.4472 34.9623 21.2279 34.88 21.0229C34.7976 20.818 34.6753 20.6315 34.5203 20.4742C34.3652 20.3169 34.1804 20.192 33.9766 20.1068C33.7729 20.0215 33.5542 19.9776 33.3333 19.9776C33.1125 19.9776 32.8938 20.0215 32.69 20.1068C32.4863 20.192 32.3015 20.3169 32.1464 20.4742C31.9913 20.6315 31.8691 20.818 31.7867 21.0229C31.7043 21.2279 31.6635 21.4472 31.6667 21.668V31.668H8.33333V8.33468H18.3333C18.5542 8.3378 18.7735 8.297 18.9784 8.21464C19.1834 8.13229 19.3699 8.01002 19.5272 7.85495C19.6845 7.69987 19.8093 7.51508 19.8946 7.31132C19.9798 7.10756 20.0237 6.88889 20.0237 6.66801C20.0237 6.44714 19.9798 6.22846 19.8946 6.0247C19.8093 5.82094 19.6845 5.63615 19.5272 5.48108C19.3699 5.326 19.1834 5.20374 18.9784 5.12138C18.7735 5.03902 18.5542 4.99822 18.3333 5.00135H8.33333Z" fill="#CCCCCC"/>
</svg>
